<svg xmlns="http://www.w3.org/2000/svg" viewBox="0 0 6046.62 4325.18"><defs><style>.cls-1{fill:#f3ff5a;}.cls-19,.cls-2,.cls-7{fill:#fff;}.cls-10,.cls-11,.cls-12,.cls-13,.cls-14,.cls-15,.cls-16,.cls-17,.cls-19,.cls-2,.cls-20,.cls-21,.cls-34,.cls-4,.cls-5,.cls-6,.cls-7{stroke:#231f20;}.cls-10,.cls-11,.cls-12,.cls-13,.cls-14,.cls-15,.cls-16,.cls-17,.cls-18,.cls-19,.cls-2,.cls-21,.cls-34,.cls-4,.cls-5,.cls-6,.cls-7{stroke-linecap:round;}.cls-10,.cls-11,.cls-12,.cls-13,.cls-14,.cls-15,.cls-16,.cls-18,.cls-2,.cls-34,.cls-5,.cls-6,.cls-7{stroke-linejoin:round;}.cls-10,.cls-18,.cls-2,.cls-5,.cls-6{stroke-width:40px;}.cls-3{fill:#231f20;}.cls-17,.cls-19,.cls-20,.cls-21,.cls-4{stroke-miterlimit:10;}.cls-11,.cls-12,.cls-13,.cls-14,.cls-15,.cls-16,.cls-4{stroke-width:20px;}.cls-18,.cls-5,.cls-9{fill:#cecece;}.cls-6,.cls-8{fill:#777;}.cls-7{stroke-width:12px;}.cls-10,.cls-11,.cls-12,.cls-13,.cls-14,.cls-15,.cls-16,.cls-20,.cls-21,.cls-34{fill:none;}.cls-12{stroke-dasharray:1.34 40.32 1.34 40.32;}.cls-13{stroke-dasharray:1.34 40.32 1.34 40.32 1.34 40.32;}.cls-14{stroke-dasharray:1.34 40.32 1.34 40.32;}.cls-15{stroke-dasharray:1.34 40.32 1.34 40.32 1.34 40.32;}.cls-16{stroke-dasharray:1.38 41.47 1.38 41.47 1.38 41.47;}.cls-17,.cls-19,.cls-21{stroke-width:15px;}.cls-18{stroke:#000;}.cls-20{stroke-width:14.03px;}.cls-22,.cls-28{font-size:140px;font-family:Baskerville-SemiBold, Baskerville;font-weight:600;}.cls-23{letter-spacing:-0.07em;}.cls-24,.cls-28{letter-spacing:-0.05em;}.cls-25{letter-spacing:-0.07em;}.cls-26{letter-spacing:-0.02em;}.cls-27{letter-spacing:0em;}.cls-29{letter-spacing:0em;}.cls-30{letter-spacing:0.02em;}.cls-31{letter-spacing:-0.03em;}.cls-32{letter-spacing:0em;}.cls-33{letter-spacing:0.04em;}.cls-34{stroke-width:12.48px;}</style></defs><title>Asset 2</title><g id="Layer_2" data-name="Layer 2"><g id="Layer_1-2" data-name="Layer 1"><rect class="cls-1" width="6046.62" height="4325.18"/><polygon class="cls-2" points="2372.03 2234.29 1939.01 1984.29 1939.01 1484.29 2372.03 1734.29 2372.03 2234.29"/><ellipse class="cls-3" cx="2256.2" cy="1839.47" rx="41.84" ry="72.47" transform="translate(-617.46 1374.56) rotate(-30)"/><ellipse class="cls-3" cx="2054.84" cy="1723.21" rx="41.84" ry="72.47" transform="translate(-586.31 1258.3) rotate(-30)"/><line class="cls-4" x1="2100.18" y1="1948.29" x2="2204.6" y2="2008.58"/><polygon class="cls-5" points="2374.45 1733.05 1941.43 1483.05 2374.44 1233.05 2807.45 1483.05 2374.45 1733.05"/><polygon class="cls-6" points="2808.46 1984.06 2375.45 2234.06 2375.45 1734.06 2808.46 1484.06 2808.46 1984.06"/><polygon class="cls-2" points="2375.03 3819.86 1942.02 3569.86 1942.02 3069.87 2375.03 3319.87 2375.03 3819.86"/><polygon class="cls-5" points="2373.44 3317.86 1940.43 3067.86 2373.44 2817.86 2806.45 3067.86 2373.44 3317.86"/><polygon class="cls-6" points="2810.46 3570.87 2377.45 3820.87 2377.45 3320.87 2810.46 3070.87 2810.46 3570.87"/><line class="cls-7" x1="2068.08" y1="3279.12" x2="2068.08" y2="3347.76"/><path class="cls-7" d="M2088.92,3301.18l-41.54,24"/><line class="cls-7" x1="2097.07" y1="3329.34" x2="2039.08" y2="3295.86"/><path class="cls-7" d="M2047.38,3277.2l41.54,72"/><line class="cls-7" x1="2261.24" y1="3390.64" x2="2261.24" y2="3459.28"/><path class="cls-7" d="M2282.56,3413,2241,3437"/><line class="cls-7" x1="2291.68" y1="3441.7" x2="2232.24" y2="3407.38"/><path class="cls-7" d="M2241,3389l41.54,71.95"/><ellipse class="cls-3" cx="2169.19" cy="3566.69" rx="21.44" ry="37.13" transform="translate(-1492.74 1562.46) rotate(-30)"/><polygon class="cls-8" points="3774.55 1978.95 3774.55 2229.21 4207.57 1982.21 4207.56 1726.9 3774.55 1978.95"/><polygon class="cls-9" points="3341.54 1726.9 3774.55 1982.05 4207.56 1726.9 3774.55 1476.9 3341.54 1726.9"/><polyline class="cls-10" points="4207.57 1742.01 4207.57 1982.05 3774.55 2232.05 3774.55 1992.01"/><polyline class="cls-2" points="3774.55 1982.05 3774.55 2232.05 3341.54 1982.05 3341.54 1732.05"/><line class="cls-4" x1="3538.75" y1="2041.11" x2="3577.34" y2="2063.39"/><line class="cls-4" x1="3680.57" y1="2009.21" x2="3719.16" y2="2031.49"/><line class="cls-4" x1="3399.85" y1="1847.14" x2="3438.43" y2="1869.41"/><polyline class="cls-11" points="3774.55 1981.36 3774.55 1982.05 3773.95 1981.7"/><line class="cls-12" x1="3739.04" y1="1961.54" x2="3684.33" y2="1929.96"/><line class="cls-13" x1="3666.87" y1="1919.88" x2="3359.6" y2="1742.47"/><polyline class="cls-11" points="3342.14 1732.39 3341.54 1732.05 3341.54 1731.36"/><line class="cls-14" x1="3341.54" y1="1691.04" x2="3341.54" y2="1627.88"/><line class="cls-15" x1="3341.54" y1="1607.72" x2="3341.54" y2="1502.9"/><polyline class="cls-11" points="3341.54 1482.74 3341.54 1482.05 3342.14 1482.4"/><line class="cls-12" x1="3377.06" y1="1502.56" x2="3431.76" y2="1534.14"/><line class="cls-13" x1="3449.22" y1="1544.22" x2="3756.5" y2="1721.63"/><polyline class="cls-11" points="3773.95 1731.7 3774.55 1732.05 3774.55 1732.74"/><line class="cls-14" x1="3774.55" y1="1773.06" x2="3774.55" y2="1836.22"/><line class="cls-15" x1="3774.55" y1="1856.38" x2="3774.55" y2="1961.2"/><polyline class="cls-11" points="4207.57 1731.1 4207.57 1731.79 4206.97 1732.13"/><line class="cls-12" x1="4172.05" y1="1752.29" x2="4117.35" y2="1783.88"/><line class="cls-13" x1="4099.89" y1="1793.96" x2="3792.61" y2="1971.36"/><polyline class="cls-11" points="3775.15 1981.44 3774.55 1981.79 3774.55 1981.1"/><line class="cls-14" x1="3774.55" y1="1940.78" x2="3774.55" y2="1877.62"/><line class="cls-15" x1="3774.55" y1="1857.46" x2="3774.55" y2="1752.64"/><polyline class="cls-11" points="3774.55 1732.48 3774.55 1731.79 3775.15 1731.44"/><line class="cls-12" x1="3810.07" y1="1711.28" x2="3864.77" y2="1679.7"/><line class="cls-13" x1="3882.23" y1="1669.62" x2="4189.51" y2="1492.21"/><polyline class="cls-11" points="4206.97 1482.13 4207.57 1481.79 4207.57 1482.48"/><line class="cls-14" x1="4207.57" y1="1522.8" x2="4207.57" y2="1585.96"/><line class="cls-15" x1="4207.57" y1="1606.12" x2="4207.57" y2="1710.94"/><polyline class="cls-16" points="4207.56 1482.05 3774.55 1232.05 3341.54 1482.05"/><line class="cls-16" x1="3774.55" y1="1476.9" x2="3774.55" y2="1232.05"/><polyline class="cls-16" points="4207.56 1735.95 3774.55 1485.95 3341.54 1735.95"/><polygon class="cls-2" points="1075.3 3819.86 642.29 3569.86 642.29 3069.87 1075.3 3319.87 1075.3 3819.86"/><line class="cls-17" x1="699.97" y1="3524.72" x2="760.07" y2="3559.42"/><ellipse class="cls-3" cx="747.57" cy="3271.12" rx="38.87" ry="67.33" transform="translate(-1535.42 812.05) rotate(-30)"/><ellipse class="cls-3" cx="996.81" cy="3660.69" rx="25.04" ry="43.36" transform="translate(-1696.81 988.86) rotate(-30)"/><polygon class="cls-18" points="1075.3 3318.86 642.29 3068.86 1075.3 2818.86 1508.31 3068.86 1075.3 3318.86"/><polygon class="cls-6" points="1509.31 3569.86 1076.3 3819.86 1076.3 3319.87 1509.31 3069.87 1509.31 3569.86"/><polygon class="cls-18" points="5178.16 1732.75 4745.15 1482.75 5178.16 1232.75 5611.18 1482.75 5178.16 1732.75"/><polygon class="cls-6" points="5612.18 1986.76 5179.16 2236.76 5179.16 1736.77 5612.18 1486.77 5612.18 1986.76"/><polygon class="cls-2" points="5178.16 2235.3 4745.15 1985.3 4745.15 1485.3 5178.16 1735.3 5178.16 2235.3"/><path class="cls-19" d="M5103.48,1876.92c0,28.85-20.25,37.54-45.24,23.12s-45.24-46.51-45.24-75.36"/><path class="cls-19" d="M4910.32,1765.4c0,28.85-20.26,37.54-45.24,23.12s-45.24-46.51-45.24-75.36"/><line class="cls-17" x1="4942.33" y1="1949.05" x2="4980.91" y2="1971.33"/><polygon class="cls-5" points="3774.12 3317.35 3341.11 3067.35 3774.11 2817.36 4207.13 3067.36 3774.12 3317.35"/><polygon class="cls-6" points="4208.13 3571.37 3775.12 3821.37 3775.12 3321.37 4208.13 3071.37 4208.13 3571.37"/><polygon class="cls-2" points="3773.99 3820.36 3340.97 3570.36 3340.97 3070.37 3773.99 3320.37 3773.99 3820.36"/><line class="cls-16" x1="3557.48" y1="3697.01" x2="3557.48" y2="3197.01"/><ellipse class="cls-3" cx="3407.01" cy="3206.42" rx="18.51" ry="32.07" transform="translate(-1146.77 2133.11) rotate(-30)"/><ellipse class="cls-3" cx="3491.57" cy="3255.25" rx="18.51" ry="32.07" transform="translate(-1159.85 2181.93) rotate(-30)"/><polyline class="cls-20" points="3397.37 3308.92 3414.68 3300.2 3431.98 3328.89 3449.28 3320.18 3466.59 3348.88 3483.89 3340.16 3501.2 3368.86"/><ellipse class="cls-3" cx="3619.03" cy="3328.84" rx="18.51" ry="32.07" transform="translate(-1179.57 2255.52) rotate(-30)"/><ellipse class="cls-3" cx="3703.6" cy="3377.66" rx="18.51" ry="32.07" transform="translate(-1192.65 2304.35) rotate(-30)"/><polyline class="cls-20" points="3609.4 3431.33 3626.7 3422.61 3644 3451.3 3661.3 3442.59 3678.61 3471.29 3695.91 3462.57 3713.23 3491.27"/><line class="cls-11" x1="3993.62" y1="2948.36" x2="3993.03" y2="2948.7"/><line class="cls-12" x1="3958.11" y1="2968.86" x2="3903.4" y2="3000.45"/><line class="cls-13" x1="3885.95" y1="3010.53" x2="3578.67" y2="3187.93"/><line class="cls-11" x1="3561.21" y1="3198.01" x2="3560.61" y2="3198.36"/><polygon class="cls-5" points="5177.66 3316.85 4744.65 3066.85 5177.66 2816.86 5610.67 3066.86 5177.66 3316.85"/><polygon class="cls-6" points="5611.68 3571.87 5178.66 3821.87 5178.66 3321.87 5611.68 3071.87 5611.68 3571.87"/><polygon class="cls-2" points="5177.66 3819.43 4744.65 3569.43 4744.65 3069.44 5177.66 3319.44 5177.66 3819.43"/><line class="cls-16" x1="4744.65" y1="3324.08" x2="5177.66" y2="3574.08"/><ellipse class="cls-3" cx="5048.24" cy="3374.75" rx="16.53" ry="28.64" transform="translate(-1011.04 2976.28) rotate(-30)"/><line class="cls-4" x1="5054.38" y1="3366.6" x2="5078.5" y2="3395.15"/><ellipse class="cls-3" cx="4855.61" cy="3263.54" rx="16.53" ry="28.64" transform="matrix(0.87, -0.5, 0.5, 0.87, -981.24, 2865.07)"/><line class="cls-4" x1="4849.48" y1="3248.3" x2="4825.35" y2="3248.99"/><line class="cls-21" x1="4922.98" y1="3359.72" x2="4982.55" y2="3406.02"/><ellipse class="cls-3" cx="5048.24" cy="3616.74" rx="16.53" ry="28.64" transform="translate(-1132.04 3008.71) rotate(-30)"/><line class="cls-4" x1="5054.38" y1="3608.59" x2="5078.5" y2="3637.14"/><ellipse class="cls-3" cx="4855.61" cy="3505.53" rx="16.53" ry="28.64" transform="translate(-1102.24 2897.49) rotate(-30)"/><line class="cls-4" x1="4849.48" y1="3490.29" x2="4825.35" y2="3490.98"/><line class="cls-21" x1="4922.98" y1="3601.71" x2="4982.55" y2="3648.01"/><line class="cls-16" x1="5176.66" y1="3564.85" x2="5609.68" y2="3314.85"/><text class="cls-22" transform="matrix(0.87, -0.5, 0.87, 0.5, 3262.53, 2998.54)"><tspan class="cls-23">F</tspan><tspan x="72.94" y="0">ear</tspan></text><text class="cls-22" transform="matrix(0.87, -0.5, 0.87, 0.5, 596.26, 1476.9)">Fiction</text><text class="cls-22" transform="matrix(0.87, -0.5, 0.87, 0.5, 3151.51, 1319.57)"><tspan class="cls-24">F</tspan><tspan x="76.77" y="0">ailing </tspan><tspan x="0" y="168">Meta</tspan></text><text class="cls-22" transform="matrix(0.87, -0.5, 0.87, 0.5, 1716.43, 2898.84)"><tspan class="cls-25">F</tspan><tspan x="72.94" y="0">o</tspan><tspan class="cls-26" x="151.76" y="0">r</tspan><tspan class="cls-27" x="210.55" y="0">ce </tspan><tspan x="0" y="168">Majeure</tspan></text><text class="cls-28" transform="matrix(0.87, -0.5, 0.87, 0.5, 4683.73, 1405.14)">F<tspan class="cls-29" x="76.77" y="0">atigue</tspan></text><text class="cls-22" transform="matrix(0.87, -0.5, 0.87, 0.5, 413.4, 2898.84)"><tspan class="cls-30">F</tspan><tspan x="85.72" y="0">l</tspan><tspan class="cls-26" x="129.54" y="0">a</tspan><tspan class="cls-31" x="202.89" y="0">w</tspan><tspan x="312.81" y="0">ed </tspan><tspan class="cls-31" x="0" y="168">V</tspan><tspan x="102.47" y="168">i</tspan><tspan class="cls-26" x="146.29" y="168">e</tspan><tspan class="cls-32" x="215.13" y="168">ws</tspan></text><text class="cls-22" transform="matrix(0.87, -0.5, 0.87, 0.5, 1822.04, 1405.14)">Fixation</text><text class="cls-22" transform="matrix(0.87, -0.5, 0.87, 0.5, 4571.11, 2998.54)"><tspan class="cls-26">F</tspan><tspan class="cls-33" x="80.66" y="0">r</tspan><tspan x="147.04" y="0">ustration</tspan></text><polygon class="cls-5" points="1070.8 1819.57 637.78 1569.57 1070.79 1319.57 1503.81 1569.57 1070.8 1819.57"/><polygon class="cls-6" points="1508.81 2073.58 1075.8 2323.58 1075.8 1823.59 1508.81 1573.59 1508.81 2073.58"/><polygon class="cls-2" points="1071.8 2323.27 638.78 2073.27 638.78 1573.28 1071.8 1823.28 1071.8 2323.27"/><path class="cls-34" d="M825,1881.56c0,39.54-27.72,55.54-62,35.77s-62-67.78-62-107.32"/><path class="cls-34" d="M804.37,1869.63c0,26.37-18.47,37-41.31,23.85s-41.31-45.18-41.31-71.55"/><path class="cls-34" d="M783.72,1857.71c0,13.18-9.24,18.51-20.66,11.92s-20.65-22.59-20.65-35.77"/><path class="cls-34" d="M825,1881.56c0-46.14-32.34-102.15-72.29-125.22s-72.3-4.4-72.3,41.74"/><path class="cls-34" d="M804.37,1869.63c0-33-23.09-73-51.63-89.44s-51.64-3.14-51.64,29.82"/><path class="cls-34" d="M783.72,1857.71c0-19.78-13.86-43.78-31-53.67s-31-1.88-31,17.89"/><path class="cls-34" d="M763.06,1845.78c0-6.59-4.62-14.59-10.32-17.89s-10.33-.63-10.33,6"/><path class="cls-34" d="M1029.15,2000.39c0,39.55-27.72,55.55-62,35.78s-62-67.78-62-107.33"/><path class="cls-34" d="M1008.49,1988.47c0,26.36-18.47,37-41.3,23.85s-41.31-45.19-41.31-71.55"/><path class="cls-34" d="M987.84,1976.54c0,13.19-9.24,18.52-20.65,11.93s-20.66-22.59-20.66-35.78"/><path class="cls-34" d="M1029.15,2000.39c0-46.14-32.33-102.14-72.29-125.21s-72.29-4.4-72.29,41.74"/><path class="cls-34" d="M1008.49,1988.47c0-33-23.09-73-51.63-89.44s-51.64-3.14-51.64,29.81"/><path class="cls-34" d="M987.84,1976.54c0-19.77-13.86-43.77-31-53.66s-31-1.89-31,17.89"/><path class="cls-34" d="M967.19,1964.62c0-6.59-4.62-14.59-10.33-17.89s-10.33-.63-10.33,6"/><line class="cls-4" x1="819.15" y1="2076.86" x2="890.44" y2="2118.02"/></g></g></svg>