<?xml version="1.0" encoding="utf-8"?>
<!-- Generator: Adobe Illustrator 24.0.1, SVG Export Plug-In . SVG Version: 6.00 Build 0)  -->
<svg version="1.1" id="Layer_1" xmlns="http://www.w3.org/2000/svg" xmlns:xlink="http://www.w3.org/1999/xlink" x="0px" y="0px"
	 viewBox="0 0 250 250" style="enable-background:new 0 0 250 250;" xml:space="preserve">
<style type="text/css">
	.st0{fill:none;}
	.st1{fill:none;stroke:#000000;stroke-width:4;stroke-linecap:round;stroke-miterlimit:10;}
	.st2{fill:none;stroke:#000000;stroke-width:2;stroke-linecap:round;stroke-miterlimit:10;}
	.st3{fill:none;stroke:#000ABF;stroke-width:2;stroke-linecap:round;stroke-miterlimit:10;}
</style>
<rect x="-0.1" y="0.2" class="st0" width="249.8" height="249.3"/>
<g>
	<path class="st1" d="M176.8,131.3c-1.9,0-3.6,0.8-5,2.1l1-38.3c0-8.9-7.9-22.1-17.7-22.1H96c-9.8,0-17.7,13.2-17.7,22.1L79,135
		c-1.5-2.2-3.7-3.6-6.2-3.6c-4.6,0-8.3,4.9-8.3,10.9c0,6,8.1,15.5,12.7,15.5c0.9,0,1.7-0.4,2.2-1.1l0.3,15.4
		c0,11.1,11.8,20.1,22.3,32.9c3.9,4.7,11.5,10.2,17.6,10.2l14.6,0c6.1,0,15.4-7.5,19.1-12.4c7.5-10.1,17.6-17.4,17.6-28.5l0.4-16.3
		c0.6,0.6,1.3,1,2.1,1c4.6,0,11.8-10.8,11.8-16.8C185.1,136.2,181.4,131.3,176.8,131.3z"/>
	<path d="M87.4,127.7c-1.3,0.3-2.4-0.8-1.7-1.7c1.4-2,3.3-4.4,4.6-5.1c2.3-1.1,10.6,0.4,10.6,0.4l6.4,0.2c1.4-0.2,2.8-1.1,4.1-0.8
		l3.4,0.8l1.1,1.2c1,1.2-0.1,2.8-1.9,2.7C108.4,125.1,98.2,124.9,87.4,127.7z"/>
	<path d="M135.3,123.2c-1.6-0.3-2.1-2-0.7-2.7c1.3-0.7,3-1.2,5-1c1.1,0.1,2.1,0.3,3,0.4c3.2,0.5,6.6,0.5,9.8-0.1l0.4-0.1
		c2.3-0.4,4.7-0.4,7,0.2l4.4,1.2c1.3,0.4,1.8,1.6,1,2.5l-0.4,0.4c-1,1-2.6,1.6-4.3,1.5C154.8,125.2,141.7,124.5,135.3,123.2z"/>
	<g>
		<line class="st2" x1="121.1" y1="172.9" x2="121.7" y2="169.9"/>
		<line class="st2" x1="117.7" y1="203.9" x2="118.4" y2="200.9"/>
		<line class="st2" x1="101.7" y1="207.9" x2="102.4" y2="204.9"/>
		<line class="st2" x1="106.9" y1="213.2" x2="107.5" y2="210.2"/>
		<line class="st2" x1="116.8" y1="217.6" x2="117.4" y2="214.6"/>
		<line class="st2" x1="111.9" y1="173" x2="112.5" y2="170"/>
		<line class="st2" x1="88.5" y1="182" x2="90.3" y2="179.6"/>
		<line class="st2" x1="76.3" y1="166.9" x2="79.3" y2="166.5"/>
		<line class="st2" x1="77.3" y1="176.6" x2="80.3" y2="176.1"/>
		<line class="st2" x1="85.3" y1="174.4" x2="88.3" y2="173.9"/>
		<line class="st2" x1="84.2" y1="168.4" x2="87.3" y2="168.5"/>
		<line class="st2" x1="80.8" y1="183.8" x2="83.8" y2="183.4"/>
		<line class="st2" x1="83.4" y1="188.9" x2="86.4" y2="188.5"/>
		<line class="st2" x1="102.3" y1="194.1" x2="103" y2="191.1"/>
		<line class="st2" x1="109.1" y1="199.3" x2="109.7" y2="196.3"/>
		<line class="st2" x1="95.9" y1="202.3" x2="96.5" y2="199.3"/>
		<line class="st2" x1="102.9" y1="172.4" x2="103.6" y2="169.4"/>
		<line class="st2" x1="94.5" y1="187.1" x2="96.4" y2="184.7"/>
		<line class="st2" x1="89.9" y1="196" x2="90.5" y2="193"/>
		<line class="st2" x1="132.8" y1="172.6" x2="132.3" y2="169.6"/>
		<line class="st2" x1="136.5" y1="203.8" x2="136.1" y2="200.8"/>
		<line class="st2" x1="134.7" y1="218.1" x2="134.3" y2="215.1"/>
		<line class="st2" x1="126.1" y1="218.3" x2="126" y2="215.2"/>
		<line class="st2" x1="141.8" y1="173" x2="141.4" y2="170"/>
		<line class="st2" x1="156.7" y1="192.6" x2="154.5" y2="190.5"/>
		<line class="st2" x1="153.5" y1="205.8" x2="153.1" y2="202.8"/>
		<line class="st2" x1="150.5" y1="172.4" x2="150.1" y2="169.4"/>
		<line class="st2" x1="174" y1="164.7" x2="170.9" y2="164.4"/>
		<line class="st2" x1="164.7" y1="170.7" x2="161.7" y2="170.4"/>
		<line class="st2" x1="174.3" y1="174.9" x2="171.3" y2="174.6"/>
		<line class="st2" x1="172.6" y1="183.2" x2="169.6" y2="183"/>
		<line class="st2" x1="164.7" y1="193.9" x2="161.7" y2="193.7"/>
		<line class="st2" x1="159.7" y1="199.6" x2="156.7" y2="199.3"/>
		<line class="st2" x1="163" y1="178.6" x2="160.2" y2="177.6"/>
		<line class="st2" x1="127.4" y1="206.4" x2="127.3" y2="203.4"/>
		<line class="st2" x1="162.2" y1="185.2" x2="159.2" y2="184.7"/>
		<line class="st2" x1="146.7" y1="198.9" x2="146.2" y2="195.9"/>
		<line class="st2" x1="145.9" y1="213.2" x2="145.4" y2="210.2"/>
	</g>
	<path class="st3" d="M116.1,138.8"/>
	<g>
		<path class="st2" d="M108.3,178.1c0,0,8,2.3,20.3,2.1c5.4-0.1,11.7,0.1,18.5-2.1"/>
		<path class="st2" d="M119.7,154.5l-0.3,1.9c-0.6,3.5,2.2,6.7,5.7,6.7h5.4c3.6,0,6.3-3.2,5.7-6.7l-0.3-2.9"/>
		<path class="st2" d="M116.5,139.6c4.2-1.5,4.1-5.5,4.1-5.5"/>
		<path class="st2" d="M135.4,134.8c0,0-0.2,4.4,2.7,6.7"/>
		<line class="st2" x1="119.1" y1="184.9" x2="136.3" y2="184.9"/>
		<path class="st2" d="M70.4,140.1c0,0-1.2,5,1.2,7.1"/>
		<path class="st2" d="M179.1,139.4c0,0,1.8,5.3-1.2,7.9"/>
	</g>
	<path d="M108.2,132.7l1.1-2.8c-0.9-1.3-2.2-2.2-3.6-2.2c-2.8,0-5,3.2-5,7.1c0,3.9,2.3,7.1,5,7.1c2.8,0,5-3.2,5-7.1
		c0-0.7-0.1-1.4-0.2-2.1H108.2z"/>
	<path d="M149.1,132.8l1.1-2.9c-0.9-1.4-2.2-2.2-3.6-2.2c-2.8,0-5,3.2-5,7.2c0,4,2.3,7.2,5,7.2c2.8,0,5-3.2,5-7.2
		c0-0.8-0.1-1.5-0.2-2.1H149.1z"/>
	<path d="M81.3,153.2c0,0-1.5,4-2.2,1.7c-3.8-12.7-20.5-49.7-18.9-62.1c0.4-3,1.7-2.5,1.8-3.4c0.6-2.8-1.9-8.4-1.5-11.2
		c0.8-4.7,5-13.9,8.6-17.1c1-0.9,3.9-1.3,4.8-2.3c1.6-1.9,0.4-7.7,1.8-9.7c2.2-2.9,11.1-2.3,13.8-4.8c1-0.9,0.3-4.2,1.3-5.1
		c2-1.9,8.4,0.7,11-0.2c0.8-0.3,1.4-2.3,2.2-2.7c2.5-1.3,8.5,0.3,11.1-0.5c1.7-0.5,4.3-3.4,6-3.6c2.4-0.3,6.8,2.8,9.2,3.2
		c1.9,0.3,5.8-0.8,7.7-0.4c2.3,0.5,6.1,3.6,8.3,4.2c1.6,0.4,4.9-0.1,6.4,0.3c2.6,0.7,7.1,3.8,9.6,4.8c2.1,0.8,7,1.1,8.9,2.5
		c4.3,3.1,7.4,5.1,9.3,10c0.4,1,1.9,2.2,2.4,6.4c0.1,1.2,2.5,4.2,4.3,7.4c0.4,0.8,2.2,3,2.7,4.2c1,2.3,0.7,4.9,0.8,6.6
		c0.2,3.2-1.3,9.4-2.2,12.4c-0.6,2-1.8,4.6-2.3,6.6c-0.3,1.4-0.9,5.6-1.2,7c-1.7,8.3-9.8,39.2-13.5,50.3c-1,3-2.3,0.5-2.3,0.5
		s0.9-36.8,1.1-45.4c0.1-2.6-6.3-5.2-7.2-7.7c-1.7-4.6,5-16.2,2.9-20.6c-1.7-3.5-2.7-3.8-38-0.7c-1.2,0.1-2.5,0.1-3.7-0.1
		c-7.2-0.9-33.8-4.1-37,0.4c-3.4,4.8,2.1,16.9-0.5,22.2c-1.2,2.3-6.2,2.3-6.2,4.8C81.2,141.5,81.3,153.2,81.3,153.2z"/>
</g>
</svg>
