<svg width="1480" height="900" viewBox="0 0 1480 900" fill="none" xmlns="http://www.w3.org/2000/svg">
<rect width="1480" height="900" fill="white"/>
<rect width="1480" height="900" fill="#1C86FF"/>
<path d="M575.285 396.825L465.336 333.347V206.391L575.285 269.869V396.825Z" fill="white" stroke="#231F20" stroke-width="10.1565" stroke-linecap="round" stroke-linejoin="round"/>
<path d="M555.076 312.516C560.157 309.582 560.157 300.069 555.076 291.268C549.995 282.467 541.756 277.71 536.675 280.644C531.594 283.578 531.594 293.09 536.675 301.892C541.756 310.693 549.995 315.449 555.076 312.516Z" fill="#231F20"/>
<path d="M503.947 282.995C509.028 280.061 509.028 270.548 503.947 261.747C498.865 252.946 490.627 248.189 485.546 251.123C480.464 254.057 480.464 263.569 485.546 272.371C490.627 281.172 498.865 285.928 503.947 282.995Z" fill="#231F20"/>
<path d="M506.259 324.206L532.772 339.514" stroke="#231F20" stroke-width="5.07825" stroke-miterlimit="10" stroke-linecap="round"/>
<path d="M575.899 269.554L465.95 206.076L575.897 142.598L685.843 206.076L575.899 269.554Z" fill="#CECECE" stroke="#231F20" stroke-width="10.1565" stroke-linecap="round" stroke-linejoin="round"/>
<path d="M686.1 333.289L576.154 396.767V269.81L686.1 206.332V333.289Z" fill="#777777" stroke="#231F20" stroke-width="10.1565" stroke-linecap="round" stroke-linejoin="round"/>
<path d="M576.047 799.421L466.101 735.943V608.99L576.047 672.468V799.421Z" fill="white" stroke="#231F20" stroke-width="10.1565" stroke-linecap="round" stroke-linejoin="round"/>
<path d="M575.643 671.957L465.697 608.479L575.643 545.001L685.59 608.479L575.643 671.957Z" fill="#CECECE" stroke="#231F20" stroke-width="10.1565" stroke-linecap="round" stroke-linejoin="round"/>
<path d="M686.608 736.199L576.662 799.678V672.721L686.608 609.243V736.199Z" fill="#777777" stroke="#231F20" stroke-width="10.1565" stroke-linecap="round" stroke-linejoin="round"/>
<path d="M498.108 662.12V679.549" stroke="#231F20" stroke-width="3.04695" stroke-linecap="round" stroke-linejoin="round"/>
<path d="M503.4 667.722L492.853 673.816Z" fill="white"/>
<path d="M503.4 667.722L492.853 673.816" stroke="#231F20" stroke-width="3.04695" stroke-linecap="round" stroke-linejoin="round"/>
<path d="M505.47 674.872L490.745 666.371" stroke="#231F20" stroke-width="3.04695" stroke-linecap="round" stroke-linejoin="round"/>
<path d="M492.853 661.633L503.4 679.915Z" fill="white"/>
<path d="M492.853 661.633L503.4 679.915" stroke="#231F20" stroke-width="3.04695" stroke-linecap="round" stroke-linejoin="round"/>
<path d="M547.154 690.437V707.865" stroke="#231F20" stroke-width="3.04695" stroke-linecap="round" stroke-linejoin="round"/>
<path d="M552.568 696.114L542.015 702.208Z" fill="white"/>
<path d="M552.568 696.114L542.015 702.208" stroke="#231F20" stroke-width="3.04695" stroke-linecap="round" stroke-linejoin="round"/>
<path d="M554.884 703.401L539.791 694.687" stroke="#231F20" stroke-width="3.04695" stroke-linecap="round" stroke-linejoin="round"/>
<path d="M542.015 690.02L552.563 708.289Z" fill="white"/>
<path d="M542.015 690.02L552.563 708.289" stroke="#231F20" stroke-width="3.04695" stroke-linecap="round" stroke-linejoin="round"/>
<path d="M528.492 743.307C531.096 741.804 531.096 736.93 528.493 732.421C525.89 727.912 521.668 725.475 519.065 726.978C516.461 728.481 516.461 733.355 519.064 737.865C521.667 742.374 525.889 744.811 528.492 743.307Z" fill="#231F20"/>
<path d="M931.402 331.991V395.535L1041.35 332.819L1041.35 267.992L931.402 331.991Z" fill="#777777"/>
<path d="M821.456 267.993L931.403 332.778L1041.35 267.993L931.403 204.514L821.456 267.993Z" fill="#CECECE"/>
<path d="M1041.35 271.829V332.778L931.402 396.256V335.307" stroke="#231F20" stroke-width="10.1565" stroke-linecap="round" stroke-linejoin="round"/>
<path d="M931.403 332.778V396.256L821.456 332.778V269.3" fill="white"/>
<path d="M931.403 332.778V396.256L821.456 332.778V269.3" stroke="#231F20" stroke-width="10.1565" stroke-linecap="round" stroke-linejoin="round"/>
<path d="M871.53 347.774L881.329 353.431" stroke="#231F20" stroke-width="5.07825" stroke-miterlimit="10" stroke-linecap="round"/>
<path d="M907.54 339.675L917.338 345.332" stroke="#231F20" stroke-width="5.07825" stroke-miterlimit="10" stroke-linecap="round"/>
<path d="M836.262 298.523L846.058 304.178" stroke="#231F20" stroke-width="5.07825" stroke-miterlimit="10" stroke-linecap="round"/>
<path d="M931.403 332.603V332.779L931.25 332.69" stroke="#231F20" stroke-width="5.07825" stroke-linecap="round" stroke-linejoin="round"/>
<path d="M922.386 327.571L908.495 319.552" stroke="#231F20" stroke-width="5.07825" stroke-linecap="round" stroke-linejoin="round" stroke-dasharray="0.34 10.24 0.34 10.24"/>
<path d="M904.061 316.992L826.042 271.946" stroke="#231F20" stroke-width="5.07825" stroke-linecap="round" stroke-linejoin="round" stroke-dasharray="0.34 10.24 0.34 10.24 0.34 10.24"/>
<path d="M821.609 269.387L821.456 269.301V269.125" stroke="#231F20" stroke-width="5.07825" stroke-linecap="round" stroke-linejoin="round"/>
<path d="M821.456 258.887V242.85" stroke="#231F20" stroke-width="5.07825" stroke-linecap="round" stroke-linejoin="round" stroke-dasharray="0.34 10.24 0.34 10.24"/>
<path d="M821.456 237.731V211.116" stroke="#231F20" stroke-width="5.07825" stroke-linecap="round" stroke-linejoin="round" stroke-dasharray="0.34 10.24 0.34 10.24 0.34 10.24"/>
<path d="M821.456 205.998V205.822L821.609 205.911" stroke="#231F20" stroke-width="5.07825" stroke-linecap="round" stroke-linejoin="round"/>
<path d="M830.475 211.03L844.364 219.048" stroke="#231F20" stroke-width="5.07825" stroke-linecap="round" stroke-linejoin="round" stroke-dasharray="0.34 10.24 0.34 10.24"/>
<path d="M848.797 221.608L926.819 266.654" stroke="#231F20" stroke-width="5.07825" stroke-linecap="round" stroke-linejoin="round" stroke-dasharray="0.34 10.24 0.34 10.24 0.34 10.24"/>
<path d="M931.25 269.211L931.403 269.3V269.476" stroke="#231F20" stroke-width="5.07825" stroke-linecap="round" stroke-linejoin="round"/>
<path d="M931.402 279.713V295.75" stroke="#231F20" stroke-width="5.07825" stroke-linecap="round" stroke-linejoin="round" stroke-dasharray="0.34 10.24 0.34 10.24"/>
<path d="M931.402 300.869V327.484" stroke="#231F20" stroke-width="5.07825" stroke-linecap="round" stroke-linejoin="round" stroke-dasharray="0.34 10.24 0.34 10.24 0.34 10.24"/>
<path d="M1041.35 269.059V269.235L1041.2 269.321" stroke="#231F20" stroke-width="5.07825" stroke-linecap="round" stroke-linejoin="round"/>
<path d="M1032.33 274.439L1018.44 282.461" stroke="#231F20" stroke-width="5.07825" stroke-linecap="round" stroke-linejoin="round" stroke-dasharray="0.34 10.24 0.34 10.24"/>
<path d="M1014.01 285.02L935.988 330.064" stroke="#231F20" stroke-width="5.07825" stroke-linecap="round" stroke-linejoin="round" stroke-dasharray="0.34 10.24 0.34 10.24 0.34 10.24"/>
<path d="M931.555 332.623L931.402 332.713V332.537" stroke="#231F20" stroke-width="5.07825" stroke-linecap="round" stroke-linejoin="round"/>
<path d="M931.402 322.299V306.262" stroke="#231F20" stroke-width="5.07825" stroke-linecap="round" stroke-linejoin="round" stroke-dasharray="0.34 10.24 0.34 10.24"/>
<path d="M931.402 301.143V274.528" stroke="#231F20" stroke-width="5.07825" stroke-linecap="round" stroke-linejoin="round" stroke-dasharray="0.34 10.24 0.34 10.24 0.34 10.24"/>
<path d="M931.402 269.41V269.234L931.555 269.145" stroke="#231F20" stroke-width="5.07825" stroke-linecap="round" stroke-linejoin="round"/>
<path d="M940.421 264.026L954.31 256.008" stroke="#231F20" stroke-width="5.07825" stroke-linecap="round" stroke-linejoin="round" stroke-dasharray="0.34 10.24 0.34 10.24"/>
<path d="M958.744 253.448L1036.77 208.401" stroke="#231F20" stroke-width="5.07825" stroke-linecap="round" stroke-linejoin="round" stroke-dasharray="0.34 10.24 0.34 10.24 0.34 10.24"/>
<path d="M1041.2 205.842L1041.35 205.756V205.932" stroke="#231F20" stroke-width="5.07825" stroke-linecap="round" stroke-linejoin="round"/>
<path d="M1041.35 216.169V232.206" stroke="#231F20" stroke-width="5.07825" stroke-linecap="round" stroke-linejoin="round" stroke-dasharray="0.34 10.24 0.34 10.24"/>
<path d="M1041.35 237.325V263.94" stroke="#231F20" stroke-width="5.07825" stroke-linecap="round" stroke-linejoin="round" stroke-dasharray="0.34 10.24 0.34 10.24 0.34 10.24"/>
<path d="M1041.35 205.822L931.403 142.344L821.456 205.822" stroke="#231F20" stroke-width="5.07825" stroke-linecap="round" stroke-linejoin="round" stroke-dasharray="0.35 10.53 0.35 10.53 0.35 10.53"/>
<path d="M931.402 204.514V142.344" stroke="#231F20" stroke-width="5.07825" stroke-linecap="round" stroke-linejoin="round" stroke-dasharray="0.35 10.53 0.35 10.53 0.35 10.53"/>
<path d="M1041.35 270.29L931.403 206.812L821.456 270.29" stroke="#231F20" stroke-width="5.07825" stroke-linecap="round" stroke-linejoin="round" stroke-dasharray="0.35 10.53 0.35 10.53 0.35 10.53"/>
<path d="M246.029 799.421L136.083 735.943V608.99L246.029 672.468V799.421Z" fill="white" stroke="#231F20" stroke-width="10.1565" stroke-linecap="round" stroke-linejoin="round"/>
<path d="M150.728 724.481L165.988 733.292" stroke="#231F20" stroke-width="3.80869" stroke-miterlimit="10" stroke-linecap="round"/>
<path d="M171.358 674.899C176.079 672.174 176.078 663.336 171.357 655.159C166.637 646.982 158.983 642.563 154.262 645.288C149.542 648.014 149.542 656.852 154.263 665.028C158.984 673.205 166.638 677.625 171.358 674.899Z" fill="#231F20"/>
<path d="M231.601 768.545C234.642 766.789 234.643 761.097 231.603 755.831C228.562 750.565 223.633 747.72 220.592 749.475C217.551 751.231 217.55 756.923 220.59 762.189C223.63 767.455 228.56 770.3 231.601 768.545Z" fill="#231F20"/>
<path d="M246.029 672.211L136.083 608.733L246.029 545.255L355.976 608.733L246.029 672.211Z" fill="#CECECE" stroke="black" stroke-width="10.1565" stroke-linecap="round" stroke-linejoin="round"/>
<path d="M356.23 735.943L246.283 799.421V672.468L356.23 608.99V735.943Z" fill="#777777" stroke="#231F20" stroke-width="10.1565" stroke-linecap="round" stroke-linejoin="round"/>
<path d="M1287.8 269.478L1177.85 206L1287.8 142.521L1397.75 206L1287.8 269.478Z" fill="#CECECE" stroke="black" stroke-width="10.1565" stroke-linecap="round" stroke-linejoin="round"/>
<path d="M1398 333.974L1288.05 397.452V270.499L1398 207.021V333.974Z" fill="#777777" stroke="#231F20" stroke-width="10.1565" stroke-linecap="round" stroke-linejoin="round"/>
<path d="M1287.8 397.082L1177.85 333.603V206.647L1287.8 270.125V397.082Z" fill="white" stroke="#231F20" stroke-width="10.1565" stroke-linecap="round" stroke-linejoin="round"/>
<path d="M1268.83 306.084C1268.83 313.41 1263.69 315.616 1257.35 311.955C1251 308.293 1245.86 300.145 1245.86 292.82" fill="white"/>
<path d="M1268.83 306.084C1268.83 313.41 1263.69 315.616 1257.35 311.955C1251 308.293 1245.86 300.145 1245.86 292.82" stroke="#231F20" stroke-width="3.80869" stroke-miterlimit="10" stroke-linecap="round"/>
<path d="M1219.79 277.768C1219.79 285.093 1214.64 287.3 1208.3 283.639C1201.96 279.977 1196.81 271.829 1196.81 264.504" fill="white"/>
<path d="M1219.79 277.768C1219.79 285.093 1214.64 287.3 1208.3 283.639C1201.96 279.977 1196.81 271.829 1196.81 264.504" stroke="#231F20" stroke-width="3.80869" stroke-miterlimit="10" stroke-linecap="round"/>
<path d="M1227.92 324.399L1237.71 330.056" stroke="#231F20" stroke-width="3.80869" stroke-miterlimit="10" stroke-linecap="round"/>
<path d="M931.293 671.828L821.347 608.35L931.291 544.874L1041.24 608.352L931.293 671.828Z" fill="#CECECE" stroke="#231F20" stroke-width="10.1565" stroke-linecap="round" stroke-linejoin="round"/>
<path d="M1041.49 736.326L931.547 799.804V672.848L1041.49 609.37V736.326Z" fill="#777777" stroke="#231F20" stroke-width="10.1565" stroke-linecap="round" stroke-linejoin="round"/>
<path d="M931.261 799.548L821.312 736.07V609.116L931.261 672.594V799.548Z" fill="white" stroke="#231F20" stroke-width="10.1565" stroke-linecap="round" stroke-linejoin="round"/>
<path d="M876.286 768.228V641.272" stroke="#231F20" stroke-width="5.07825" stroke-linecap="round" stroke-linejoin="round" stroke-dasharray="0.35 10.53 0.35 10.53 0.35 10.53"/>
<path d="M842.148 650.72C844.396 649.422 844.396 645.213 842.147 641.318C839.898 637.423 836.253 635.318 834.005 636.616C831.757 637.914 831.758 642.123 834.007 646.018C836.255 649.913 839.9 652.018 842.148 650.72Z" fill="#231F20"/>
<path d="M863.62 663.118C865.868 661.82 865.867 657.611 863.619 653.716C861.37 649.821 857.725 647.716 855.477 649.014C853.229 650.312 853.23 654.521 855.478 658.416C857.727 662.311 861.372 664.416 863.62 663.118Z" fill="#231F20"/>
<path d="M835.632 669.687L840.027 667.473L844.42 674.757L848.812 672.546L853.208 679.833L857.6 677.619L861.996 684.906" stroke="#231F20" stroke-width="3.56239" stroke-miterlimit="10"/>
<path d="M895.984 681.803C898.232 680.506 898.231 676.296 895.983 672.401C893.734 668.507 890.089 666.402 887.841 667.699C885.593 668.997 885.593 673.207 887.842 677.101C890.091 680.996 893.736 683.101 895.984 681.803Z" fill="#231F20"/>
<path d="M917.457 694.2C919.705 692.902 919.704 688.693 917.456 684.798C915.207 680.903 911.562 678.798 909.314 680.096C907.066 681.394 907.066 685.603 909.315 689.498C911.564 693.393 915.209 695.498 917.457 694.2Z" fill="#231F20"/>
<path d="M889.469 700.768L893.862 698.554L898.255 705.839L902.647 703.627L907.043 710.915L911.435 708.701L915.833 715.988" stroke="#231F20" stroke-width="3.56239" stroke-miterlimit="10"/>
<path d="M987.028 578.136L986.878 578.223" stroke="#231F20" stroke-width="5.07825" stroke-linecap="round" stroke-linejoin="round"/>
<path d="M978.011 583.342L964.119 591.363" stroke="#231F20" stroke-width="5.07825" stroke-linecap="round" stroke-linejoin="round" stroke-dasharray="0.34 10.24 0.34 10.24"/>
<path d="M959.689 593.922L881.667 638.966" stroke="#231F20" stroke-width="5.07825" stroke-linecap="round" stroke-linejoin="round" stroke-dasharray="0.34 10.24 0.34 10.24 0.34 10.24"/>
<path d="M877.233 641.526L877.08 641.615" stroke="#231F20" stroke-width="5.07825" stroke-linecap="round" stroke-linejoin="round"/>
<path d="M1287.67 671.701L1177.72 608.223L1287.67 544.747L1397.62 608.225L1287.67 671.701Z" fill="#CECECE" stroke="#231F20" stroke-width="10.1565" stroke-linecap="round" stroke-linejoin="round"/>
<path d="M1397.87 736.454L1287.92 799.932V672.975L1397.87 609.497V736.454Z" fill="#777777" stroke="#231F20" stroke-width="10.1565" stroke-linecap="round" stroke-linejoin="round"/>
<path d="M1287.67 799.312L1177.72 735.834V608.88L1287.67 672.358V799.312Z" fill="white" stroke="#231F20" stroke-width="10.1565" stroke-linecap="round" stroke-linejoin="round"/>
<path d="M1177.72 673.536L1287.67 737.014" stroke="#231F20" stroke-width="5.07825" stroke-linecap="round" stroke-linejoin="round" stroke-dasharray="0.35 10.53 0.35 10.53 0.35 10.53"/>
<path d="M1258.44 692.707C1260.45 691.548 1260.45 687.789 1258.44 684.311C1256.43 680.833 1253.18 678.953 1251.17 680.112C1249.16 681.271 1249.17 685.03 1251.17 688.508C1253.18 691.986 1256.44 693.866 1258.44 692.707Z" fill="#231F20"/>
<path d="M1256.37 684.333L1262.49 691.582" stroke="#231F20" stroke-width="5.07825" stroke-miterlimit="10" stroke-linecap="round"/>
<path d="M1214.43 667.793C1216.45 666.634 1216.46 662.862 1214.45 659.368C1212.44 655.874 1209.18 653.981 1207.16 655.14C1205.15 656.299 1205.14 660.071 1207.15 663.565C1209.15 667.059 1212.42 668.952 1214.43 667.793Z" fill="#231F20"/>
<path d="M1204.34 654.294L1198.21 654.47" stroke="#231F20" stroke-width="5.07825" stroke-miterlimit="10" stroke-linecap="round"/>
<path d="M1223 682.586L1238.13 694.342" stroke="#231F20" stroke-width="3.80869" stroke-miterlimit="10" stroke-linecap="round"/>
<path d="M1258.44 754.154C1260.45 752.995 1260.45 749.236 1258.44 745.758C1256.43 742.28 1253.18 740.4 1251.17 741.559C1249.16 742.718 1249.16 746.477 1251.17 749.955C1253.18 753.433 1256.44 755.313 1258.44 754.154Z" fill="#231F20"/>
<path d="M1256.37 745.777L1262.49 753.026" stroke="#231F20" stroke-width="5.07825" stroke-miterlimit="10" stroke-linecap="round"/>
<path d="M1209.53 725.915C1211.54 724.756 1211.54 720.997 1209.53 717.519C1207.52 714.04 1204.27 712.16 1202.26 713.319C1200.25 714.478 1200.25 718.238 1202.26 721.716C1204.27 725.194 1207.52 727.074 1209.53 725.915Z" fill="#231F20"/>
<path d="M1204.34 715.739L1198.21 715.914" stroke="#231F20" stroke-width="5.07825" stroke-miterlimit="10" stroke-linecap="round"/>
<path d="M1223 744.03L1238.13 755.786" stroke="#231F20" stroke-width="3.80869" stroke-miterlimit="10" stroke-linecap="round"/>
<path d="M1287.42 734.671L1397.37 671.193" stroke="#231F20" stroke-width="5.07825" stroke-linecap="round" stroke-linejoin="round" stroke-dasharray="0.35 10.53 0.35 10.53 0.35 10.53"/>
<path d="M805.384 575.709L796.686 580.708L805.671 585.872L801.141 588.476L779.154 575.839L793.47 567.612L797.139 569.721L787.354 575.345L793.032 578.608L801.73 573.609L805.384 575.709ZM825.287 574.946C822.891 576.323 820.203 577.023 817.223 577.046C814.253 577.063 811.545 576.369 809.099 574.963L808.676 574.72C807.035 573.777 805.888 572.753 805.233 571.648C804.569 570.537 804.468 569.449 804.931 568.384C805.394 567.308 806.371 566.342 807.861 565.486C810.096 564.201 812.557 563.597 815.245 563.672C817.943 563.741 820.586 564.52 823.173 566.007L824.955 567.031L814.55 573.01C815.759 573.542 817.037 573.791 818.386 573.757C819.745 573.716 820.968 573.383 822.056 572.758C823.737 571.792 824.441 570.687 824.17 569.443L828.715 569.591C828.987 570.499 828.826 571.425 828.232 572.368C827.628 573.305 826.646 574.164 825.287 574.946ZM811.379 567.525C810.513 568.023 810.101 568.596 810.141 569.244C810.191 569.886 810.685 570.563 811.621 571.274L817.691 567.786L817.344 567.586C816.358 567.042 815.351 566.764 814.324 566.753C813.287 566.736 812.305 566.993 811.379 567.525ZM843.665 564.036C843.071 563.927 842.437 563.73 841.762 563.446C841.883 564.731 841.098 565.859 839.406 566.831C837.806 567.751 836.014 568.248 834.031 568.324C832.057 568.393 830.366 568.023 828.957 567.213C827.225 566.218 826.535 565.087 826.888 563.819C827.25 562.547 828.64 561.21 831.056 559.81L833.064 558.656L832.128 558.118C831.373 557.684 830.572 557.449 829.727 557.415C828.891 557.374 828.056 557.594 827.22 558.074C826.485 558.497 826.082 558.931 826.012 559.376C825.952 559.816 826.228 560.212 826.843 560.565L822.478 563.073C821.532 562.529 820.948 561.858 820.727 561.06C820.505 560.261 820.702 559.425 821.316 558.552C821.92 557.672 822.886 556.851 824.215 556.087C826.228 554.93 828.332 554.305 830.527 554.212C832.722 554.108 834.735 554.583 836.567 555.636L843.65 559.706C845.21 560.591 846.599 561.141 847.818 561.355L848.074 561.502L843.665 564.036ZM837.021 564.366C837.665 563.996 838.118 563.574 838.38 563.099C838.631 562.619 838.646 562.165 838.425 561.737L835.616 560.122L833.985 561.06C831.801 562.315 831.393 563.417 832.762 564.366L833.004 564.522C833.547 564.835 834.187 564.982 834.921 564.965C835.656 564.948 836.356 564.748 837.021 564.366ZM847.712 547.634C847.037 547.929 846.474 548.207 846.021 548.467C844.37 549.416 843.846 550.359 844.45 551.296L855.142 557.441L850.777 559.949L834.438 550.559L838.561 548.189L840.63 549.239C840.005 547.874 840.469 546.746 842.019 545.855C842.502 545.577 843.021 545.354 843.574 545.186L847.712 547.634Z" fill="white"/>
<path d="M128.385 189.346L119.687 194.345L128.672 199.509L124.142 202.112L102.155 189.476L116.471 181.249L120.14 183.358L110.355 188.981L116.033 192.245L124.731 187.246L128.385 189.346ZM145.404 189.893L141.025 192.41L124.685 183.019L129.065 180.502L145.404 189.893ZM120.201 180.737C119.546 180.361 119.224 179.927 119.234 179.435C119.254 178.937 119.642 178.472 120.397 178.038C121.142 177.61 121.947 177.39 122.813 177.378C123.679 177.367 124.439 177.549 125.093 177.925C125.758 178.307 126.075 178.749 126.045 179.253C126.024 179.75 125.647 180.21 124.912 180.633C124.177 181.055 123.372 181.275 122.496 181.292C121.63 181.304 120.865 181.119 120.201 180.737ZM152.592 182.065C153.397 181.602 153.83 181.098 153.891 180.554C153.951 180.011 153.624 179.522 152.909 179.088L157.001 176.736C158.099 177.378 158.813 178.136 159.146 179.01C159.468 179.878 159.367 180.757 158.844 181.648C158.32 182.527 157.434 183.326 156.186 184.043C153.85 185.386 151.268 186.019 148.439 185.944C145.6 185.863 142.872 185.07 140.254 183.566L139.968 183.401C137.451 181.955 136.112 180.416 135.951 178.784C135.79 177.152 136.877 175.666 139.213 174.323C141.256 173.149 143.476 172.544 145.872 172.509C148.268 172.463 150.443 172.99 152.396 174.089L148.303 176.441C147.437 175.966 146.491 175.723 145.464 175.712C144.427 175.694 143.496 175.923 142.671 176.397C141.654 176.982 141.256 177.638 141.478 178.367C141.699 179.085 142.64 179.921 144.301 180.876L144.755 181.136C146.436 182.102 147.901 182.649 149.149 182.776C150.397 182.904 151.545 182.666 152.592 182.065ZM150.01 163.848L154.026 166.157L156.82 164.551L160.021 166.391L157.228 167.996L165.382 172.683C165.986 173.03 166.535 173.212 167.028 173.23C167.522 173.247 168.095 173.068 168.75 172.692C169.233 172.414 169.626 172.148 169.928 171.893L173.235 173.794C172.641 174.436 171.891 175.018 170.985 175.538C167.924 177.297 164.819 177.306 161.667 175.564L152.864 170.505L150.478 171.876L147.276 170.036L149.662 168.665L145.645 166.356L150.01 163.848ZM180.196 169.897L175.817 172.414L159.478 163.024L163.857 160.507L180.196 169.897ZM154.993 160.741C154.339 160.365 154.016 159.931 154.026 159.439C154.047 158.942 154.434 158.476 155.189 158.042C155.934 157.614 156.74 157.394 157.605 157.382C158.471 157.371 159.231 157.553 159.886 157.929C160.55 158.311 160.867 158.754 160.837 159.257C160.817 159.755 160.439 160.215 159.704 160.637C158.969 161.059 158.164 161.279 157.288 161.297C156.422 161.308 155.657 161.123 154.993 160.741ZM174.805 163.432C173.184 162.5 172.052 161.49 171.408 160.403C170.763 159.315 170.678 158.236 171.151 157.166C171.634 156.089 172.651 155.106 174.201 154.215C176.406 152.948 178.877 152.303 181.616 152.279C184.364 152.251 186.977 152.855 189.453 154.093L190.601 154.718C193.107 156.159 194.421 157.718 194.542 159.396C194.653 161.068 193.53 162.581 191.175 163.935C188.819 165.289 186.181 165.937 183.262 165.879C180.352 165.815 177.599 165.037 175.002 163.544L174.805 163.432ZM179.486 161.106C181.037 161.997 182.517 162.512 183.926 162.65C185.325 162.784 186.569 162.538 187.656 161.913C188.713 161.305 189.136 160.599 188.925 159.795C188.703 158.985 187.701 158.068 185.919 157.044C184.399 156.17 182.924 155.664 181.495 155.525C180.065 155.386 178.812 155.627 177.735 156.246C176.668 156.859 176.26 157.573 176.512 158.389C176.753 159.199 177.745 160.105 179.486 161.106ZM188.97 146.074L190.993 147.081C190.701 145.571 191.537 144.252 193.5 143.123C195.232 142.128 197.029 141.68 198.891 141.778C200.754 141.877 202.707 142.501 204.75 143.653L215.306 149.719L210.942 152.227L200.492 146.222C199.566 145.689 198.695 145.42 197.879 145.415C197.054 145.403 196.173 145.666 195.237 146.204C194.008 146.91 193.611 147.741 194.044 148.695L205.566 155.317L201.202 157.825L184.862 148.435L188.97 146.074Z" fill="white"/>
<path d="M797.916 180.821L789.218 185.82L798.203 190.984L793.673 193.587L771.686 180.951L786.002 172.724L789.671 174.833L779.886 180.456L785.564 183.719L794.262 178.721L797.916 180.821ZM819.284 178.868C818.69 178.758 818.056 178.561 817.381 178.278C817.502 179.562 816.717 180.691 815.026 181.663C813.425 182.583 811.633 183.08 809.65 183.155C807.677 183.225 805.985 182.855 804.576 182.045C802.844 181.049 802.155 179.918 802.507 178.651C802.87 177.378 804.259 176.042 806.675 174.642L808.683 173.487L807.747 172.949C806.992 172.515 806.192 172.281 805.346 172.246C804.51 172.206 803.675 172.426 802.839 172.906C802.104 173.328 801.702 173.762 801.631 174.208C801.571 174.647 801.848 175.044 802.462 175.397L798.098 177.905C797.151 177.361 796.567 176.69 796.346 175.891C796.124 175.093 796.321 174.257 796.935 173.383C797.539 172.504 798.505 171.682 799.834 170.918C801.848 169.761 803.952 169.136 806.146 169.044C808.341 168.94 810.355 169.414 812.187 170.467L819.269 174.537C820.829 175.423 822.219 175.972 823.437 176.186L823.694 176.334L819.284 178.868ZM812.64 179.198C813.284 178.828 813.737 178.405 813.999 177.931C814.251 177.451 814.266 176.996 814.044 176.568L811.235 174.954L809.605 175.891C807.42 177.147 807.012 178.249 808.381 179.198L808.623 179.354C809.167 179.667 809.806 179.814 810.541 179.797C811.276 179.779 811.975 179.58 812.64 179.198ZM831.002 172.133L826.623 174.65L810.284 165.26L814.663 162.743L831.002 172.133ZM805.799 162.978C805.145 162.601 804.823 162.167 804.833 161.676C804.853 161.178 805.24 160.712 805.995 160.278C806.74 159.85 807.546 159.63 808.412 159.619C809.277 159.607 810.037 159.79 810.692 160.166C811.356 160.547 811.673 160.99 811.643 161.493C811.623 161.991 811.245 162.451 810.511 162.873C809.776 163.296 808.97 163.516 808.094 163.533C807.229 163.545 806.464 163.359 805.799 162.978ZM839.217 167.412L834.838 169.929L811.643 156.599L816.022 154.082L839.217 167.412ZM847.432 162.691L843.053 165.208L826.714 155.818L831.093 153.301L847.432 162.691ZM822.229 153.535C821.574 153.159 821.252 152.725 821.262 152.233C821.283 151.736 821.67 151.27 822.425 150.836C823.17 150.408 823.975 150.188 824.841 150.176C825.707 150.165 826.467 150.347 827.121 150.723C827.786 151.105 828.103 151.548 828.073 152.051C828.053 152.549 827.675 153.009 826.94 153.431C826.205 153.853 825.4 154.073 824.524 154.091C823.658 154.102 822.893 153.917 822.229 153.535ZM838.719 148.918L840.742 149.925C840.451 148.415 841.286 147.096 843.249 145.967C844.981 144.972 846.778 144.524 848.64 144.622C850.503 144.721 852.456 145.345 854.499 146.497L865.055 152.563L860.691 155.071L850.241 149.066C849.315 148.533 848.444 148.264 847.628 148.259C846.803 148.247 845.922 148.51 844.986 149.048C843.758 149.754 843.36 150.584 843.793 151.539L855.315 158.161L850.951 160.669L834.612 151.279L838.719 148.918ZM859.452 146.254C856.946 144.813 855.521 143.312 855.179 141.75C854.847 140.182 855.692 138.816 857.716 137.653C859.508 136.623 861.516 136.175 863.741 136.308L862.382 135.319L866.338 133.045L882.134 142.123C883.563 142.944 884.48 143.847 884.882 144.83C885.295 145.808 885.189 146.795 884.565 147.79C883.941 148.785 882.839 149.737 881.258 150.645C880.06 151.334 878.651 151.866 877.03 152.242C875.419 152.624 873.944 152.766 872.605 152.667L871.88 150.029C874.186 150.104 876.114 149.696 877.664 148.805C878.822 148.14 879.411 147.443 879.431 146.714C879.461 145.99 878.907 145.302 877.77 144.648L876.894 144.145C877.025 145.377 876.27 146.465 874.629 147.408C872.666 148.536 870.31 149.011 867.562 148.831C864.813 148.64 862.171 147.816 859.634 146.358L859.452 146.254ZM864.134 143.928C865.614 144.778 867.073 145.276 868.513 145.421C869.942 145.559 871.176 145.331 872.213 144.735C873.542 143.971 873.995 143.138 873.572 142.236L866.701 138.287C865.12 138.05 863.681 138.304 862.382 139.05C861.335 139.652 860.937 140.373 861.189 141.211C861.451 142.045 862.432 142.95 864.134 143.928ZM877.966 119.871L899.56 125.789L889.231 113.396L895.181 109.977L917.168 122.613L912.623 125.225L906.612 121.771L896.691 115.549L907.141 128.376L904.03 130.164L881.741 124.158L892.553 129.851L898.564 133.305L894.033 135.909L872.047 123.273L877.966 119.871ZM928.66 116.356C926.264 117.733 923.576 118.433 920.596 118.456C917.626 118.473 914.918 117.779 912.472 116.373L912.049 116.13C910.408 115.187 909.26 114.163 908.606 113.058C907.941 111.947 907.841 110.859 908.304 109.795C908.767 108.719 909.743 107.752 911.233 106.896C913.468 105.612 915.93 105.007 918.618 105.082C921.316 105.152 923.958 105.93 926.546 107.417L928.327 108.441L917.923 114.42C919.131 114.953 920.41 115.202 921.759 115.167C923.118 115.126 924.341 114.794 925.428 114.169C927.109 113.203 927.814 112.097 927.542 110.854L932.088 111.001C932.359 111.909 932.198 112.835 931.604 113.778C931 114.716 930.019 115.575 928.66 116.356ZM914.752 108.936C913.886 109.433 913.473 110.006 913.513 110.654C913.564 111.296 914.057 111.973 914.993 112.685L921.064 109.196L920.717 108.996C919.73 108.452 918.723 108.175 917.696 108.163C916.659 108.146 915.678 108.403 914.752 108.936ZM922.438 96.1866L926.455 98.4951L929.249 96.8896L932.45 98.7295L929.656 100.335L937.811 105.021C938.415 105.369 938.963 105.551 939.457 105.568C939.95 105.586 940.524 105.406 941.178 105.03C941.661 104.752 942.054 104.486 942.356 104.232L945.663 106.132C945.069 106.775 944.319 107.356 943.413 107.877C940.353 109.636 937.247 109.644 934.096 107.903L925.292 102.843L922.906 104.214L919.705 102.374L922.091 101.003L918.074 98.6947L922.438 96.1866ZM957.487 99.4411C956.893 99.3312 956.259 99.1345 955.584 98.851C955.705 100.135 954.92 101.264 953.229 102.236C951.628 103.156 949.836 103.653 947.853 103.728C945.88 103.798 944.188 103.427 942.779 102.617C941.047 101.622 940.358 100.491 940.71 99.2241C941.073 97.9513 942.462 96.6148 944.878 95.2146L946.886 94.0603L945.95 93.5223C945.195 93.0883 944.395 92.854 943.549 92.8193C942.713 92.7788 941.878 92.9987 941.042 93.4789C940.307 93.9012 939.905 94.3352 939.834 94.7807C939.774 95.2204 940.051 95.6167 940.665 95.9696L936.301 98.4778C935.354 97.9339 934.77 97.2628 934.549 96.4643C934.327 95.6659 934.524 94.8298 935.138 93.9562C935.742 93.0768 936.708 92.2552 938.037 91.4915C940.051 90.3343 942.155 89.7094 944.349 89.6169C946.544 89.5127 948.558 89.9872 950.39 91.0402L957.472 95.1105C959.032 95.9957 960.422 96.5453 961.64 96.7594L961.897 96.9069L957.487 99.4411ZM950.843 99.7709C951.487 99.4006 951.94 98.9782 952.202 98.5038C952.454 98.0236 952.469 97.5694 952.247 97.1413L949.438 95.527L947.808 96.4643C945.623 97.7198 945.215 98.822 946.584 99.7709L946.826 99.9271C947.37 100.24 948.009 100.387 948.744 100.37C949.479 100.352 950.178 100.153 950.843 99.7709Z" fill="white"/>
<path d="M435.916 579.548L427.218 584.547L436.203 589.711L431.673 592.314L409.686 579.678L424.002 571.451L427.671 573.56L417.886 579.183L423.564 582.447L432.262 577.448L435.916 579.548ZM438.997 578.541C437.376 577.61 436.244 576.6 435.599 575.512C434.955 574.425 434.869 573.346 435.343 572.275C435.826 571.199 436.843 570.215 438.393 569.324C440.598 568.057 443.069 567.412 445.808 567.389C448.556 567.36 451.168 567.965 453.645 569.203L454.793 569.828C457.299 571.268 458.613 572.828 458.734 574.506C458.845 576.178 457.722 577.691 455.366 579.045C453.011 580.398 450.373 581.046 447.454 580.989C444.544 580.925 441.791 580.147 439.193 578.654L438.997 578.541ZM443.678 576.215C445.229 577.106 446.709 577.621 448.118 577.76C449.517 577.893 450.761 577.647 451.848 577.022C452.905 576.415 453.328 575.709 453.116 574.905C452.895 574.095 451.893 573.178 450.111 572.154C448.591 571.28 447.116 570.774 445.687 570.635C444.257 570.496 443.004 570.736 441.927 571.355C440.859 571.969 440.452 572.683 440.703 573.499C440.945 574.309 441.937 575.214 443.678 576.215ZM462.418 560.568C461.744 560.863 461.18 561.14 460.727 561.401C459.076 562.35 458.553 563.293 459.157 564.23L469.848 570.375L465.484 572.883L449.145 563.492L453.267 561.123L455.336 562.173C454.712 560.808 455.175 559.68 456.725 558.789C457.209 558.511 457.727 558.288 458.281 558.12L462.418 560.568ZM480.056 560.811C480.862 560.348 481.295 559.844 481.355 559.301C481.415 558.757 481.088 558.268 480.373 557.834L484.466 555.482C485.563 556.124 486.278 556.882 486.61 557.756C486.932 558.624 486.831 559.503 486.308 560.394C485.784 561.274 484.899 562.072 483.65 562.789C481.315 564.132 478.732 564.765 475.904 564.69C473.065 564.609 470.336 563.816 467.719 562.312L467.432 562.147C464.915 560.701 463.576 559.162 463.415 557.53C463.254 555.899 464.341 554.412 466.677 553.069C468.721 551.895 470.94 551.29 473.336 551.255C475.732 551.209 477.907 551.736 479.86 552.835L475.768 555.187C474.902 554.712 473.955 554.469 472.929 554.458C471.892 554.441 470.96 554.669 470.135 555.143C469.118 555.728 468.721 556.385 468.942 557.114C469.163 557.831 470.105 558.667 471.766 559.622L472.219 559.882C473.9 560.848 475.365 561.395 476.613 561.522C477.862 561.65 479.009 561.412 480.056 560.811ZM500.427 553.147C498.031 554.524 495.343 555.224 492.363 555.248C489.394 555.265 486.686 554.571 484.239 553.165L483.816 552.922C482.175 551.979 481.028 550.955 480.373 549.85C479.709 548.739 479.608 547.651 480.071 546.586C480.534 545.51 481.511 544.544 483.001 543.688C485.236 542.403 487.697 541.799 490.385 541.874C493.083 541.943 495.726 542.721 498.313 544.208L500.095 545.232L489.691 551.212C490.899 551.744 492.177 551.993 493.526 551.958C494.885 551.918 496.108 551.585 497.196 550.96C498.877 549.994 499.582 548.889 499.31 547.645L503.855 547.793C504.127 548.701 503.966 549.627 503.372 550.57C502.768 551.507 501.786 552.366 500.427 553.147ZM486.519 545.727C485.654 546.225 485.241 546.798 485.281 547.446C485.331 548.088 485.825 548.765 486.761 549.476L492.832 545.988L492.484 545.788C491.498 545.244 490.491 544.966 489.464 544.955C488.427 544.937 487.446 545.195 486.519 545.727ZM501.258 527.051L522.852 532.97L512.523 520.576L518.473 517.157L540.46 529.793L535.914 532.405L529.904 528.951L519.983 522.729L530.433 535.556L527.322 537.344L505.033 531.338L515.845 537.031L521.855 540.485L517.325 543.089L495.338 530.453L501.258 527.051ZM553.597 522.243C553.003 522.133 552.369 521.936 551.695 521.653C551.815 522.937 551.03 524.065 549.339 525.037C547.738 525.957 545.946 526.455 543.963 526.53C541.99 526.599 540.299 526.229 538.889 525.419C537.158 524.424 536.468 523.293 536.82 522.026C537.183 520.753 538.572 519.416 540.988 518.016L542.997 516.862L542.06 516.324C541.305 515.89 540.505 515.656 539.659 515.621C538.824 515.58 537.988 515.8 537.153 516.28C536.418 516.703 536.015 517.137 535.944 517.582C535.884 518.022 536.161 518.418 536.775 518.771L532.411 521.279C531.465 520.736 530.881 520.064 530.659 519.266C530.438 518.468 530.634 517.631 531.248 516.758C531.852 515.878 532.819 515.057 534.147 514.293C536.161 513.136 538.265 512.511 540.46 512.418C542.654 512.314 544.668 512.789 546.5 513.842L553.582 517.912C555.143 518.797 556.532 519.347 557.75 519.561L558.007 519.709L553.597 522.243ZM546.953 522.573C547.597 522.202 548.05 521.78 548.312 521.305C548.564 520.825 548.579 520.371 548.357 519.943L545.549 518.329L543.918 519.266C541.733 520.521 541.325 521.624 542.695 522.573L542.936 522.729C543.48 523.041 544.119 523.189 544.854 523.171C545.589 523.154 546.289 522.954 546.953 522.573ZM548.992 506.109L566.222 516.011C568.024 517.047 568.945 518.126 568.985 519.249C569.035 520.377 568.16 521.459 566.358 522.494C565.603 522.928 564.797 523.293 563.941 523.588L560.483 521.601C561.097 521.352 561.601 521.115 561.993 520.889C563.312 520.131 563.272 519.35 561.873 518.546L544.612 508.626L548.992 506.109ZM540.037 506.396C539.382 506.019 539.06 505.586 539.07 505.094C539.09 504.596 539.478 504.13 540.233 503.696C540.988 503.263 541.794 503.043 542.649 503.037C543.515 503.025 544.275 503.208 544.929 503.584C545.594 503.965 545.911 504.408 545.881 504.911C545.861 505.409 545.483 505.869 544.748 506.291C544.013 506.714 543.208 506.934 542.332 506.951C541.466 506.963 540.701 506.777 540.037 506.396ZM576.566 509.39C574.17 510.767 571.482 511.467 568.502 511.49C565.532 511.507 562.824 510.813 560.378 509.407L559.955 509.164C558.314 508.221 557.166 507.197 556.512 506.092C555.847 504.981 555.747 503.893 556.21 502.829C556.673 501.752 557.649 500.786 559.139 499.93C561.374 498.645 563.836 498.041 566.524 498.116C569.222 498.186 571.864 498.964 574.452 500.451L576.234 501.475L565.829 507.454C567.037 507.987 568.316 508.235 569.665 508.201C571.024 508.16 572.247 507.827 573.334 507.203C575.015 506.236 575.72 505.131 575.448 503.887L579.994 504.035C580.265 504.943 580.104 505.869 579.51 506.812C578.906 507.749 577.925 508.609 576.566 509.39ZM562.658 501.969C561.792 502.467 561.379 503.04 561.42 503.688C561.47 504.33 561.963 505.007 562.9 505.719L568.97 502.23L568.623 502.03C567.636 501.486 566.629 501.209 565.603 501.197C564.566 501.18 563.584 501.437 562.658 501.969ZM593.6 497.344C593.831 498.715 592.996 499.947 591.093 501.041C589.341 502.048 587.499 502.528 585.566 502.481C583.643 502.429 581.7 501.851 579.737 500.746L569.03 494.593L573.395 492.084L583.95 498.151C585.651 499.129 587.277 499.172 588.828 498.281C590.308 497.43 590.811 496.551 590.338 495.643L578.771 488.995L583.15 486.478L599.489 495.868L595.381 498.229L593.6 497.344ZM599.715 481.661C599.041 481.956 598.477 482.234 598.024 482.495C596.373 483.443 595.85 484.386 596.454 485.324L607.145 491.468L602.781 493.976L586.442 484.586L590.564 482.217L592.633 483.267C592.009 481.901 592.472 480.773 594.022 479.882C594.506 479.605 595.024 479.382 595.578 479.214L599.715 481.661ZM621.597 483.51C619.201 484.887 616.513 485.587 613.533 485.61C610.563 485.628 607.855 484.933 605.408 483.527L604.986 483.284C603.345 482.341 602.197 481.317 601.543 480.212C600.878 479.101 600.777 478.013 601.241 476.949C601.704 475.873 602.68 474.906 604.17 474.05C606.405 472.766 608.867 472.161 611.554 472.236C614.252 472.306 616.895 473.084 619.482 474.571L621.264 475.595L610.86 481.575C612.068 482.107 613.346 482.356 614.695 482.321C616.055 482.28 617.278 481.948 618.365 481.323C620.046 480.357 620.751 479.252 620.479 478.008L625.024 478.155C625.296 479.064 625.135 479.989 624.541 480.932C623.937 481.87 622.956 482.729 621.597 483.51ZM607.689 476.09C606.823 476.587 606.41 477.16 606.45 477.808C606.501 478.45 606.994 479.127 607.93 479.839L614.001 476.35L613.653 476.15C612.667 475.607 611.66 475.329 610.633 475.317C609.596 475.3 608.615 475.557 607.689 476.09Z" fill="white"/>
<path d="M1162.81 173.1L1154.11 178.099L1163.1 183.263L1158.57 185.866L1136.58 173.23L1150.89 165.003L1154.56 167.112L1144.78 172.735L1150.46 175.999L1159.15 171L1162.81 173.1ZM1184.18 171.147C1183.58 171.037 1182.95 170.841 1182.27 170.557C1182.39 171.841 1181.61 172.97 1179.92 173.942C1178.32 174.862 1176.53 175.359 1174.54 175.434C1172.57 175.504 1170.88 175.134 1169.47 174.324C1167.74 173.328 1167.05 172.197 1167.4 170.93C1167.76 169.657 1169.15 168.321 1171.57 166.921L1173.58 165.766L1172.64 165.228C1171.88 164.794 1171.08 164.56 1170.24 164.525C1169.4 164.485 1168.57 164.705 1167.73 165.185C1167 165.607 1166.59 166.041 1166.52 166.487C1166.46 166.926 1166.74 167.323 1167.35 167.676L1162.99 170.184C1162.04 169.64 1161.46 168.969 1161.24 168.17C1161.02 167.372 1161.21 166.536 1161.83 165.662C1162.43 164.783 1163.4 163.961 1164.73 163.198C1166.74 162.04 1168.84 161.416 1171.04 161.323C1173.23 161.219 1175.25 161.693 1177.08 162.746L1184.16 166.817C1185.72 167.702 1187.11 168.251 1188.33 168.465L1188.59 168.613L1184.18 171.147ZM1177.53 171.477C1178.18 171.107 1178.63 170.684 1178.89 170.21C1179.14 169.73 1179.16 169.275 1178.94 168.847L1176.13 167.233L1174.5 168.17C1172.31 169.426 1171.9 170.528 1173.27 171.477L1173.52 171.633C1174.06 171.946 1174.7 172.093 1175.43 172.076C1176.17 172.058 1176.87 171.859 1177.53 171.477ZM1176.16 152.358L1180.17 154.666L1182.97 153.061L1186.17 154.901L1183.38 156.506L1191.53 161.193C1192.13 161.54 1192.68 161.722 1193.18 161.74C1193.67 161.757 1194.24 161.578 1194.9 161.201C1195.38 160.924 1195.77 160.658 1196.08 160.403L1199.38 162.304C1198.79 162.946 1198.04 163.527 1197.13 164.048C1194.07 165.807 1190.97 165.816 1187.82 164.074L1179.01 159.014L1176.63 160.386L1173.42 158.546L1175.81 157.175L1171.79 154.866L1176.16 152.358ZM1206.34 158.407L1201.97 160.924L1185.63 151.533L1190.01 149.017L1206.34 158.407ZM1181.14 149.251C1180.49 148.875 1180.16 148.441 1180.17 147.949C1180.19 147.452 1180.58 146.986 1181.34 146.552C1182.08 146.124 1182.89 145.904 1183.75 145.892C1184.62 145.881 1185.38 146.063 1186.03 146.439C1186.7 146.821 1187.02 147.264 1186.99 147.767C1186.96 148.264 1186.59 148.724 1185.85 149.147C1185.12 149.569 1184.31 149.789 1183.44 149.806C1182.57 149.818 1181.81 149.633 1181.14 149.251ZM1201.03 151.933C1198.52 150.492 1197.1 148.991 1196.76 147.428C1196.42 145.86 1197.27 144.495 1199.29 143.332C1201.08 142.302 1203.09 141.854 1205.32 141.987L1203.96 140.998L1207.91 138.724L1223.71 147.802C1225.14 148.623 1226.06 149.526 1226.46 150.509C1226.87 151.487 1226.77 152.474 1226.14 153.469C1225.52 154.464 1224.41 155.416 1222.83 156.324C1221.64 157.013 1220.23 157.545 1218.61 157.921C1217 158.303 1215.52 158.445 1214.18 158.346L1213.46 155.708C1215.76 155.783 1217.69 155.375 1219.24 154.484C1220.4 153.819 1220.99 153.122 1221.01 152.393C1221.04 151.669 1220.48 150.981 1219.35 150.327L1218.47 149.824C1218.6 151.056 1217.85 152.144 1216.21 153.087C1214.24 154.215 1211.89 154.69 1209.14 154.51C1206.39 154.319 1203.75 153.495 1201.21 152.037L1201.03 151.933ZM1205.71 149.607C1207.19 150.457 1208.65 150.955 1210.09 151.099C1211.52 151.238 1212.75 151.01 1213.79 150.414C1215.12 149.65 1215.57 148.817 1215.15 147.914L1208.28 143.966C1206.7 143.728 1205.26 143.983 1203.96 144.729C1202.91 145.331 1202.51 146.051 1202.77 146.89C1203.03 147.723 1204.01 148.629 1205.71 149.607ZM1235.75 139.6C1235.98 140.972 1235.14 142.204 1233.24 143.297C1231.49 144.304 1229.64 144.784 1227.71 144.738C1225.79 144.686 1223.85 144.107 1221.88 143.002L1211.18 136.849L1215.54 134.341L1226.1 140.407C1227.8 141.385 1229.42 141.429 1230.97 140.538C1232.45 139.687 1232.96 138.808 1232.48 137.899L1220.92 131.251L1225.3 128.735L1241.63 138.125L1237.53 140.485L1235.75 139.6ZM1252.75 132.085C1250.35 133.462 1247.67 134.162 1244.69 134.185C1241.72 134.202 1239.01 133.508 1236.56 132.102L1236.14 131.859C1234.5 130.916 1233.35 129.892 1232.7 128.787C1232.03 127.676 1231.93 126.588 1232.39 125.524C1232.86 124.447 1233.83 123.481 1235.32 122.625C1237.56 121.34 1240.02 120.736 1242.71 120.811C1245.41 120.88 1248.05 121.659 1250.64 123.146L1252.42 124.17L1242.01 130.149C1243.22 130.682 1244.5 130.93 1245.85 130.896C1247.21 130.855 1248.43 130.522 1249.52 129.898C1251.2 128.931 1251.9 127.826 1251.63 126.582L1256.18 126.73C1256.45 127.638 1256.29 128.564 1255.69 129.507C1255.09 130.444 1254.11 131.303 1252.75 132.085ZM1238.84 124.664C1237.98 125.162 1237.56 125.735 1237.6 126.383C1237.65 127.025 1238.15 127.702 1239.08 128.413L1245.15 124.925L1244.81 124.725C1243.82 124.181 1242.81 123.903 1241.79 123.892C1240.75 123.875 1239.77 124.132 1238.84 124.664Z" fill="white"/>
<path d="M99.9165 574.993L91.2184 579.992L100.203 585.156L95.6731 587.759L73.6863 575.123L88.0019 566.896L91.6714 569.005L81.886 574.629L87.564 577.892L96.262 572.893L99.9165 574.993ZM116.935 575.54L112.556 578.057L89.361 564.726L93.7402 562.21L116.935 575.54ZM130.012 568.024C129.418 567.914 128.784 567.718 128.11 567.434C128.231 568.719 127.445 569.847 125.754 570.819C124.153 571.739 122.361 572.236 120.378 572.311C118.405 572.381 116.714 572.011 115.304 571.201C113.573 570.205 112.883 569.074 113.235 567.807C113.598 566.534 114.987 565.198 117.403 563.798L119.412 562.643L118.475 562.105C117.72 561.671 116.92 561.437 116.074 561.402C115.239 561.362 114.403 561.582 113.568 562.062C112.833 562.484 112.43 562.918 112.36 563.364C112.299 563.804 112.576 564.2 113.19 564.553L108.826 567.061C107.88 566.517 107.296 565.846 107.074 565.047C106.853 564.249 107.049 563.413 107.663 562.539C108.267 561.66 109.234 560.838 110.563 560.075C112.576 558.917 114.68 558.293 116.875 558.2C119.069 558.096 121.083 558.57 122.915 559.623L129.997 563.694C131.558 564.579 132.947 565.128 134.165 565.343L134.422 565.49L130.012 568.024ZM123.368 568.354C124.012 567.984 124.465 567.561 124.727 567.087C124.979 566.607 124.994 566.153 124.772 565.724L121.964 564.11L120.333 565.047C118.148 566.303 117.74 567.405 119.11 568.354L119.351 568.51C119.895 568.823 120.534 568.97 121.269 568.953C122.004 568.935 122.704 568.736 123.368 568.354ZM145.4 552.359L137.14 545.147L141.353 542.726L153.524 554.512L149.87 556.612L136.491 552.481L143.679 560.17L140.039 562.262L119.532 555.267L123.746 552.845L136.264 557.592L128.865 549.903L132.021 548.089L145.4 552.359ZM167.689 546.718C165.293 548.095 162.605 548.795 159.625 548.818C156.655 548.836 153.947 548.141 151.501 546.735L151.078 546.492C149.437 545.549 148.29 544.525 147.635 543.42C146.971 542.309 146.87 541.222 147.333 540.157C147.796 539.081 148.773 538.115 150.263 537.258C152.498 535.974 154.959 535.369 157.647 535.445C160.345 535.514 162.988 536.292 165.575 537.779L167.357 538.803L156.952 544.783C158.16 545.315 159.439 545.564 160.788 545.529C162.147 545.489 163.37 545.156 164.457 544.531C166.139 543.565 166.843 542.46 166.572 541.216L171.117 541.363C171.389 542.272 171.228 543.197 170.634 544.141C170.03 545.078 169.048 545.937 167.689 546.718ZM153.781 539.298C152.915 539.795 152.503 540.368 152.543 541.016C152.593 541.658 153.087 542.335 154.023 543.047L160.093 539.558L159.746 539.359C158.759 538.815 157.753 538.537 156.726 538.525C155.689 538.508 154.707 538.766 153.781 539.298ZM167.629 536.877C165.082 535.413 163.622 533.92 163.249 532.398C162.887 530.871 163.697 529.537 165.681 528.398C167.271 527.483 169.179 527.07 171.404 527.156L163.068 522.366L167.447 519.849L190.642 533.179L186.701 535.445L184.753 534.568C185.025 535.974 184.305 537.169 182.594 538.152C180.671 539.257 178.37 539.712 175.693 539.515C173.015 539.307 170.327 538.427 167.629 536.877ZM172.31 534.551C173.84 535.43 175.28 535.951 176.629 536.113C177.978 536.275 179.161 536.064 180.177 535.479C181.526 534.704 181.909 533.83 181.325 532.858L174.877 529.153C173.196 528.811 171.686 529.025 170.347 529.795C168.243 531.004 168.897 532.589 172.31 534.551ZM204.686 518.842L193.134 506.475L198.178 503.577L212.508 520.613L207.782 523.329L178.169 515.076L183.198 512.186L204.686 518.842ZM226.567 512.533L222.188 515.05L205.849 505.659L210.228 503.143L226.567 512.533ZM201.364 503.377C200.71 503.001 200.387 502.567 200.398 502.075C200.418 501.578 200.805 501.112 201.56 500.678C202.305 500.25 203.111 500.03 203.976 500.018C204.842 500.007 205.602 500.189 206.257 500.565C206.921 500.947 207.238 501.39 207.208 501.893C207.188 502.39 206.81 502.85 206.075 503.273C205.341 503.695 204.535 503.915 203.659 503.932C202.794 503.944 202.028 503.759 201.364 503.377ZM237.999 506.31C235.603 507.687 232.915 508.387 229.935 508.411C226.965 508.428 224.257 507.734 221.811 506.328L221.388 506.085C219.747 505.142 218.599 504.118 217.945 503.012C217.28 501.902 217.18 500.814 217.643 499.749C218.106 498.673 219.082 497.707 220.572 496.851C222.807 495.566 225.269 494.962 227.957 495.037C230.655 495.106 233.297 495.884 235.885 497.371L237.666 498.395L227.262 504.375C228.47 504.907 229.749 505.156 231.098 505.121C232.457 505.081 233.68 504.748 234.767 504.123C236.448 503.157 237.153 502.052 236.881 500.808L241.427 500.956C241.698 501.864 241.537 502.79 240.943 503.733C240.339 504.67 239.358 505.529 237.999 506.31ZM224.091 498.89C223.225 499.388 222.812 499.96 222.852 500.608C222.903 501.251 223.396 501.928 224.332 502.639L230.403 499.15L230.056 498.951C229.069 498.407 228.062 498.129 227.035 498.118C225.999 498.1 225.017 498.358 224.091 498.89ZM255.183 489.265L246.923 482.054L251.136 479.632L263.308 491.418L259.653 493.518L246.274 489.387L253.462 497.076L249.823 499.168L229.316 492.173L233.529 489.751L246.047 494.499L238.648 486.809L241.804 484.996L255.183 489.265ZM273.984 480.092C273.45 479.785 272.766 479.699 271.93 479.832C271.095 479.953 269.972 480.28 268.563 480.812C263.861 482.577 260.267 482.745 257.781 481.316C256.331 480.483 255.722 479.444 255.954 478.2C256.185 476.945 257.272 475.759 259.215 474.642C261.289 473.45 263.434 472.779 265.648 472.628C267.873 472.472 269.766 472.843 271.326 473.739L266.962 476.247C266.338 475.889 265.623 475.709 264.818 475.709C264.002 475.704 263.167 475.947 262.311 476.438C261.576 476.861 261.173 477.283 261.103 477.706C261.032 478.128 261.254 478.487 261.767 478.782C262.251 479.059 262.87 479.155 263.625 479.068C264.38 478.97 265.412 478.672 266.72 478.174C268.019 477.671 269.177 477.283 270.194 477.011C273.345 476.172 275.962 476.352 278.046 477.549C279.536 478.406 280.105 479.467 279.752 480.734C279.39 481.996 278.197 483.208 276.174 484.371C274.804 485.158 273.345 485.719 271.794 486.054C270.244 486.378 268.744 486.471 267.294 486.332C265.835 486.187 264.611 485.832 263.625 485.265L267.762 482.887C268.578 483.309 269.459 483.485 270.405 483.416C271.351 483.347 272.273 483.054 273.169 482.54C274.004 482.059 274.477 481.608 274.588 481.186C274.699 480.752 274.497 480.387 273.984 480.092Z" fill="white"/>
<path d="M439.626 171.125L430.928 176.124L439.913 181.288L435.383 183.891L413.396 171.255L427.711 163.028L431.381 165.137L421.596 170.761L427.273 174.024L435.972 169.025L439.626 171.125ZM456.645 171.672L452.265 174.189L435.926 164.798L440.305 162.281L456.645 171.672ZM431.441 162.516C430.787 162.14 430.465 161.706 430.475 161.214C430.495 160.716 430.883 160.251 431.638 159.817C432.383 159.389 433.188 159.169 434.054 159.157C434.919 159.146 435.68 159.328 436.334 159.704C436.998 160.086 437.315 160.528 437.285 161.032C437.265 161.529 436.888 161.989 436.153 162.412C435.418 162.834 434.612 163.054 433.737 163.071C432.871 163.083 432.106 162.898 431.441 162.516ZM455.014 159.435L452.884 155.052L457.551 152.37L460.903 159.643L474.086 161.648L469.405 164.338L461.356 163.063L463.591 167.68L458.895 170.379L455.406 162.802L442.767 160.867L447.448 158.176L455.014 159.435ZM485.457 155.113C484.863 155.003 484.229 154.806 483.554 154.523C483.675 155.807 482.89 156.935 481.199 157.907C479.598 158.827 477.806 159.325 475.823 159.4C473.849 159.47 472.158 159.099 470.749 158.289C469.017 157.294 468.328 156.163 468.68 154.896C469.042 153.623 470.432 152.287 472.848 150.886L474.856 149.732L473.92 149.194C473.165 148.76 472.365 148.526 471.519 148.491C470.683 148.451 469.848 148.67 469.012 149.151C468.277 149.573 467.875 150.007 467.804 150.452C467.744 150.892 468.021 151.289 468.635 151.641L464.271 154.15C463.324 153.606 462.74 152.935 462.519 152.136C462.297 151.338 462.494 150.502 463.108 149.628C463.712 148.749 464.678 147.927 466.007 147.163C468.021 146.006 470.125 145.381 472.319 145.289C474.514 145.185 476.527 145.659 478.36 146.712L485.442 150.782C487.002 151.667 488.392 152.217 489.61 152.431L489.866 152.579L485.457 155.113ZM478.813 155.443C479.457 155.072 479.91 154.65 480.172 154.176C480.423 153.695 480.438 153.241 480.217 152.813L477.408 151.199L475.777 152.136C473.593 153.392 473.185 154.494 474.554 155.443L474.796 155.599C475.339 155.911 475.979 156.059 476.714 156.042C477.449 156.024 478.148 155.825 478.813 155.443ZM477.438 136.324L481.455 138.632L484.249 137.027L487.45 138.866L484.657 140.472L492.811 145.158C493.415 145.506 493.964 145.688 494.457 145.705C494.95 145.723 495.524 145.543 496.179 145.167C496.662 144.889 497.054 144.623 497.356 144.369L500.664 146.269C500.07 146.912 499.32 147.493 498.414 148.014C495.353 149.773 492.247 149.781 489.096 148.04L480.293 142.98L477.907 144.351L474.705 142.512L477.091 141.14L473.074 138.832L477.438 136.324ZM507.625 142.373L503.246 144.889L486.907 135.499L491.286 132.982L507.625 142.373ZM482.422 133.217C481.767 132.841 481.445 132.407 481.455 131.915C481.475 131.417 481.863 130.952 482.618 130.518C483.363 130.089 484.168 129.87 485.034 129.858C485.9 129.846 486.66 130.029 487.314 130.405C487.979 130.787 488.296 131.229 488.266 131.733C488.246 132.23 487.868 132.69 487.133 133.113C486.398 133.535 485.593 133.755 484.717 133.772C483.851 133.784 483.086 133.599 482.422 133.217ZM502.234 135.907C500.613 134.976 499.481 133.966 498.836 132.878C498.192 131.79 498.106 130.711 498.58 129.641C499.063 128.565 500.08 127.581 501.63 126.69C503.835 125.423 506.306 124.778 509.045 124.755C511.793 124.726 514.405 125.331 516.882 126.569L518.03 127.194C520.536 128.634 521.85 130.194 521.971 131.871C522.082 133.544 520.959 135.057 518.603 136.41C516.248 137.764 513.61 138.412 510.691 138.354C507.781 138.291 505.028 137.513 502.43 136.02L502.234 135.907ZM506.915 133.581C508.466 134.472 509.946 134.987 511.355 135.126C512.754 135.259 513.998 135.013 515.085 134.388C516.142 133.781 516.565 133.075 516.353 132.271C516.132 131.461 515.13 130.544 513.348 129.52C511.828 128.646 510.353 128.14 508.924 128.001C507.494 127.862 506.241 128.102 505.164 128.721C504.096 129.334 503.689 130.049 503.94 130.865C504.182 131.675 505.174 132.58 506.915 133.581ZM516.399 118.55L518.422 119.556C518.13 118.046 518.966 116.727 520.929 115.599C522.66 114.604 524.457 114.155 526.32 114.254C528.182 114.352 530.135 114.977 532.179 116.128L542.735 122.195L538.37 124.703L527.921 118.697C526.994 118.165 526.124 117.896 525.308 117.89C524.483 117.879 523.602 118.142 522.666 118.68C521.437 119.386 521.04 120.216 521.473 121.171L532.994 127.793L528.63 130.301L512.291 120.91L516.399 118.55Z" fill="white"/>
<path d="M1137.65 575.709L1128.95 580.708L1137.94 585.872L1133.41 588.476L1111.42 575.839L1125.73 567.612L1129.4 569.721L1119.62 575.345L1125.3 578.608L1133.99 573.609L1137.65 575.709ZM1146.6 566.814C1145.93 567.109 1145.37 567.386 1144.91 567.647C1143.26 568.596 1142.74 569.539 1143.34 570.476L1154.03 576.62L1149.67 579.129L1133.33 569.738L1137.45 567.369L1139.52 568.419C1138.9 567.054 1139.36 565.926 1140.91 565.035C1141.39 564.757 1141.91 564.534 1142.47 564.366L1146.6 566.814ZM1169.09 566.059C1169.32 567.43 1168.49 568.662 1166.58 569.756C1164.83 570.762 1162.99 571.243 1161.06 571.196C1159.13 571.144 1157.19 570.566 1155.23 569.461L1144.52 563.307L1148.88 560.799L1159.44 566.866C1161.14 567.843 1162.77 567.887 1164.32 566.996C1165.8 566.145 1166.3 565.266 1165.83 564.358L1154.26 557.71L1158.64 555.193L1174.98 564.583L1170.87 566.944L1169.09 566.059ZM1182.6 555.011C1182.07 554.704 1181.39 554.617 1180.55 554.75C1179.72 554.872 1178.59 555.199 1177.18 555.731C1172.48 557.496 1168.89 557.663 1166.4 556.234C1164.95 555.401 1164.34 554.363 1164.57 553.119C1164.81 551.863 1165.89 550.677 1167.84 549.56C1169.91 548.369 1172.05 547.697 1174.27 547.547C1176.49 547.391 1178.39 547.761 1179.95 548.658L1175.58 551.166C1174.96 550.807 1174.24 550.628 1173.44 550.628C1172.62 550.622 1171.79 550.865 1170.93 551.357C1170.2 551.779 1169.79 552.202 1169.72 552.624C1169.65 553.046 1169.87 553.405 1170.39 553.7C1170.87 553.978 1171.49 554.073 1172.25 553.987C1173 553.888 1174.03 553.59 1175.34 553.093C1176.64 552.589 1177.8 552.202 1178.81 551.93C1181.97 551.091 1184.58 551.27 1186.67 552.468C1188.16 553.324 1188.73 554.386 1188.37 555.653C1188.01 556.914 1186.82 558.126 1184.79 559.289C1183.43 560.076 1181.97 560.637 1180.41 560.973C1178.86 561.297 1177.36 561.389 1175.91 561.251C1174.46 561.106 1173.23 560.75 1172.25 560.183L1176.38 557.805C1177.2 558.228 1178.08 558.404 1179.03 558.335C1179.97 558.265 1180.89 557.973 1181.79 557.458C1182.62 556.978 1183.1 556.527 1183.21 556.104C1183.32 555.67 1183.12 555.306 1182.6 555.011ZM1179.06 538.842L1183.07 541.151L1185.87 539.545L1189.07 541.385L1186.27 542.991L1194.43 547.677C1195.03 548.024 1195.58 548.207 1196.07 548.224C1196.57 548.241 1197.14 548.062 1197.8 547.686C1198.28 547.408 1198.67 547.142 1198.97 546.887L1202.28 548.788C1201.69 549.43 1200.94 550.012 1200.03 550.532C1196.97 552.291 1193.86 552.3 1190.71 550.559L1181.91 545.499L1179.52 546.87L1176.32 545.03L1178.71 543.659L1174.69 541.35L1179.06 538.842ZM1201.57 535.223C1200.9 535.518 1200.33 535.796 1199.88 536.056C1198.23 537.005 1197.71 537.948 1198.31 538.886L1209 545.03L1204.64 547.538L1188.3 538.148L1192.42 535.779L1194.49 536.829C1193.86 535.463 1194.33 534.335 1195.88 533.444C1196.36 533.166 1196.88 532.944 1197.43 532.776L1201.57 535.223ZM1224.95 535.866C1224.35 535.756 1223.72 535.559 1223.04 535.275C1223.17 536.56 1222.38 537.688 1220.69 538.66C1219.09 539.58 1217.3 540.078 1215.31 540.153C1213.34 540.222 1211.65 539.852 1210.24 539.042C1208.51 538.047 1207.82 536.916 1208.17 535.649C1208.53 534.376 1209.92 533.039 1212.34 531.639L1214.35 530.485L1213.41 529.947C1212.66 529.513 1211.85 529.278 1211.01 529.244C1210.17 529.203 1209.34 529.423 1208.5 529.903C1207.77 530.326 1207.36 530.76 1207.29 531.205C1207.23 531.645 1207.51 532.041 1208.13 532.394L1203.76 534.902C1202.81 534.358 1202.23 533.687 1202.01 532.889C1201.79 532.09 1201.98 531.254 1202.6 530.381C1203.2 529.501 1204.17 528.68 1205.5 527.916C1207.51 526.759 1209.61 526.134 1211.81 526.041C1214 525.937 1216.02 526.412 1217.85 527.465L1224.93 531.535C1226.49 532.42 1227.88 532.97 1229.1 533.184L1229.36 533.331L1224.95 535.866ZM1218.3 536.195C1218.95 535.825 1219.4 535.403 1219.66 534.928C1219.91 534.448 1219.93 533.994 1219.71 533.566L1216.9 531.951L1215.27 532.889C1213.08 534.144 1212.68 535.246 1214.04 536.195L1214.29 536.352C1214.83 536.664 1215.47 536.812 1216.2 536.794C1216.94 536.777 1217.64 536.577 1218.3 536.195ZM1216.93 517.076L1220.95 519.385L1223.74 517.779L1226.94 519.619L1224.15 521.225L1232.3 525.911C1232.91 526.258 1233.45 526.441 1233.95 526.458C1234.44 526.475 1235.01 526.296 1235.67 525.92C1236.15 525.642 1236.54 525.376 1236.85 525.121L1240.15 527.022C1239.56 527.664 1238.81 528.246 1237.9 528.766C1234.84 530.525 1231.74 530.534 1228.59 528.792L1219.78 523.733L1217.4 525.104L1214.2 523.264L1216.58 521.893L1212.56 519.584L1216.93 517.076ZM1247.12 523.125L1242.74 525.642L1226.4 516.252L1230.78 513.735L1247.12 523.125ZM1221.91 513.969C1221.26 513.593 1220.94 513.159 1220.95 512.668C1220.97 512.17 1221.35 511.704 1222.11 511.27C1222.85 510.842 1223.66 510.622 1224.52 510.611C1225.39 510.599 1226.15 510.781 1226.8 511.157C1227.47 511.539 1227.79 511.982 1227.76 512.485C1227.74 512.983 1227.36 513.443 1226.62 513.865C1225.89 514.288 1225.08 514.507 1224.21 514.525C1223.34 514.536 1222.58 514.351 1221.91 513.969ZM1241.72 516.66C1240.1 515.728 1238.97 514.719 1238.33 513.631C1237.68 512.543 1237.6 511.464 1238.07 510.394C1238.55 509.318 1239.57 508.334 1241.12 507.443C1243.33 506.176 1245.8 505.531 1248.53 505.508C1251.28 505.479 1253.9 506.083 1256.37 507.321L1257.52 507.946C1260.03 509.387 1261.34 510.946 1261.46 512.624C1261.57 514.296 1260.45 515.809 1258.09 517.163C1255.74 518.517 1253.1 519.165 1250.18 519.107C1247.27 519.043 1244.52 518.265 1241.92 516.773L1241.72 516.66ZM1246.41 514.334C1247.96 515.225 1249.44 515.74 1250.85 515.879C1252.24 516.012 1253.49 515.766 1254.58 515.141C1255.63 514.533 1256.06 513.828 1255.84 513.023C1255.62 512.213 1254.62 511.296 1252.84 510.272C1251.32 509.399 1249.84 508.892 1248.41 508.753C1246.98 508.615 1245.73 508.855 1244.65 509.474C1243.59 510.087 1243.18 510.802 1243.43 511.617C1243.67 512.427 1244.66 513.333 1246.41 514.334ZM1255.89 499.302L1257.91 500.309C1257.62 498.799 1258.46 497.48 1260.42 496.352C1262.15 495.357 1263.95 494.908 1265.81 495.006C1267.67 495.105 1269.63 495.73 1271.67 496.881L1282.22 502.947L1277.86 505.456L1267.41 499.45C1266.48 498.918 1265.61 498.649 1264.8 498.643C1263.97 498.631 1263.09 498.895 1262.16 499.433C1260.93 500.138 1260.53 500.969 1260.96 501.923L1272.48 508.545L1268.12 511.053L1251.78 501.663L1255.89 499.302Z" fill="white"/>
<path d="M244.887 291.522L134.938 228.044L244.885 164.566L354.834 228.044L244.887 291.522Z" fill="#CECECE" stroke="#231F20" stroke-width="10.1565" stroke-linecap="round" stroke-linejoin="round"/>
<path d="M356.103 356.019L246.156 419.497V292.543L356.103 229.065V356.019Z" fill="#777777" stroke="#231F20" stroke-width="10.1565" stroke-linecap="round" stroke-linejoin="round"/>
<path d="M245.141 419.418L135.191 355.94V228.986L245.141 292.464V419.418Z" fill="white" stroke="#231F20" stroke-width="10.1565" stroke-linecap="round" stroke-linejoin="round"/>
<path d="M182.475 307.262C182.475 317.302 175.436 321.364 166.732 316.345C158.028 311.325 150.99 299.134 150.99 289.095" stroke="#231F20" stroke-width="3.16883" stroke-linecap="round" stroke-linejoin="round"/>
<path d="M177.237 304.233C177.237 310.929 172.547 313.628 166.747 310.289C160.948 306.95 156.258 298.817 156.258 292.122" stroke="#231F20" stroke-width="3.16883" stroke-linecap="round" stroke-linejoin="round"/>
<path d="M171.993 301.207C171.993 304.553 169.647 305.907 166.747 304.233C163.848 302.56 161.504 298.497 161.504 295.151" stroke="#231F20" stroke-width="3.16883" stroke-linecap="round" stroke-linejoin="round"/>
<path d="M182.475 307.262C182.475 295.547 174.263 281.325 164.12 275.467C153.976 269.61 145.762 274.35 145.762 286.066" stroke="#231F20" stroke-width="3.16883" stroke-linecap="round" stroke-linejoin="round"/>
<path d="M177.237 304.233C177.237 295.854 171.374 285.698 164.127 281.523C156.881 277.349 151.015 280.726 151.015 289.095" stroke="#231F20" stroke-width="3.16883" stroke-linecap="round" stroke-linejoin="round"/>
<path d="M171.994 301.207C171.994 296.184 168.474 290.09 164.122 287.579C159.77 285.068 156.251 287.102 156.251 292.122" stroke="#231F20" stroke-width="3.16883" stroke-linecap="round" stroke-linejoin="round"/>
<path d="M166.747 298.178C166.747 296.505 165.574 294.473 164.127 293.635C162.68 292.797 161.504 293.475 161.504 295.159" stroke="#231F20" stroke-width="3.16883" stroke-linecap="round" stroke-linejoin="round"/>
<path d="M234.311 337.435C234.311 347.477 227.273 351.54 218.569 346.52C209.865 341.5 202.826 329.31 202.826 319.268" stroke="#231F20" stroke-width="3.16883" stroke-linecap="round" stroke-linejoin="round"/>
<path d="M229.066 334.408C229.066 341.102 224.376 343.803 218.579 340.464C212.782 337.125 208.09 328.99 208.09 322.297" stroke="#231F20" stroke-width="3.16883" stroke-linecap="round" stroke-linejoin="round"/>
<path d="M223.822 331.379C223.822 334.728 221.476 336.082 218.579 334.408C215.682 332.735 213.333 328.672 213.333 325.323" stroke="#231F20" stroke-width="3.16883" stroke-linecap="round" stroke-linejoin="round"/>
<path d="M234.311 337.435C234.311 325.719 226.102 311.5 215.956 305.642C205.81 299.785 197.601 304.525 197.601 316.241" stroke="#231F20" stroke-width="3.16883" stroke-linecap="round" stroke-linejoin="round"/>
<path d="M229.065 334.408C229.065 326.029 223.202 315.872 215.956 311.698C208.709 307.524 202.844 310.901 202.844 319.267" stroke="#231F20" stroke-width="3.16883" stroke-linecap="round" stroke-linejoin="round"/>
<path d="M223.822 331.379C223.822 326.359 220.303 320.265 215.951 317.754C211.599 315.243 208.08 317.274 208.08 322.297" stroke="#231F20" stroke-width="3.16883" stroke-linecap="round" stroke-linejoin="round"/>
<path d="M218.579 328.352C218.579 326.679 217.406 324.648 215.956 323.81C214.506 322.972 213.333 323.65 213.333 325.333" stroke="#231F20" stroke-width="3.16883" stroke-linecap="round" stroke-linejoin="round"/>
<path d="M180.989 356.852L199.091 367.303" stroke="#231F20" stroke-width="5.07825" stroke-miterlimit="10" stroke-linecap="round"/>
</svg>
