<svg width="1480" height="900" viewBox="0 0 1480 900" fill="none" xmlns="http://www.w3.org/2000/svg">
<rect width="1480" height="900" fill="white"/>
<rect width="1480" height="900" fill="white"/>
<path d="M936.75 331.75L872.5 396L936.75 460.25L1001 396L936.75 331.75Z" fill="#DFFDA9" stroke="black" stroke-width="10.9022" stroke-linejoin="round"/>
<path d="M872.5 396L808.25 460.25L872.5 524.5L936.75 460.25L872.5 396Z" fill="#DFFDA9" stroke="black" stroke-width="10.9022" stroke-linejoin="round"/>
<path d="M872.5 267.5L808.25 331.75L872.5 396L936.75 331.75L872.5 267.5Z" fill="#DFFDA9" stroke="black" stroke-width="10.9022" stroke-linejoin="round"/>
<path d="M808.25 460.25L744 524.5L808.25 588.75L872.5 524.5L808.25 460.25Z" fill="#9EDCFE" stroke="black" stroke-width="10.9022" stroke-linejoin="round"/>
<path d="M744 524.5L679.75 588.75L744 653L808.25 588.75L744 524.5Z" fill="#9EDCFE" stroke="black" stroke-width="10.9022" stroke-linejoin="round"/>
<path d="M679.75 460.25L615.5 524.5L679.75 588.75L744 524.5L679.75 460.25Z" fill="#9EDCFE" stroke="black" stroke-width="10.9022" stroke-linejoin="round"/>
<path d="M808.25 203.25L744 267.5L808.25 331.75L872.5 267.5L808.25 203.25Z" fill="#FECA82" stroke="black" stroke-width="10.9022" stroke-linejoin="round"/>
<path d="M679.75 203.25L615.5 267.5L679.75 331.75L744 267.5L679.75 203.25Z" fill="#FECA82" stroke="black" stroke-width="10.9022" stroke-linejoin="round"/>
<path d="M744 139L679.75 203.25L744 267.5L808.25 203.25L744 139Z" fill="#FECA82" stroke="black" stroke-width="10.9022" stroke-linejoin="round"/>
<path d="M615.5 396L551.25 460.25L615.5 524.5L679.75 460.25L615.5 396Z" fill="#DEDEDE" stroke="black" stroke-width="10.9022" stroke-linejoin="round"/>
<path d="M615.5 267.5L551.25 331.75L615.5 396L679.75 331.75L615.5 267.5Z" fill="#DEDEDE" stroke="black" stroke-width="10.9022" stroke-linejoin="round"/>
<path d="M551.25 331.75L487 396L551.25 460.25L615.5 396L551.25 331.75Z" fill="#DEDEDE" stroke="black" stroke-width="10.9022" stroke-linejoin="round"/>
<path d="M808.25 331.75L744 396L808.25 460.25L872.5 396L808.25 331.75Z" fill="#FD9FBC" stroke="black" stroke-width="10.9022" stroke-linejoin="round"/>
<path d="M744 396L679.75 460.25L744 524.5L808.25 460.25L744 396Z" fill="#FD9FBC" stroke="black" stroke-width="10.9022" stroke-linejoin="round"/>
<path d="M744 267.5L679.75 331.75L744 396L808.25 331.75L744 267.5Z" fill="#FD9FBC" stroke="black" stroke-width="10.9022" stroke-linejoin="round"/>
<path d="M679.75 331.75L615.5 396L679.75 460.25L744 396L679.75 331.75Z" fill="#FD9FBC" stroke="black" stroke-width="10.9022" stroke-linejoin="round"/>
<path d="M553.34 733.939H543.758V760H537.312V733.939H527.859V728.719H553.34V733.939ZM562.686 739.289C564.333 737.312 566.402 736.324 568.895 736.324C573.936 736.324 576.493 739.253 576.564 745.111V760H570.355V745.283C570.355 743.951 570.069 742.97 569.496 742.34C568.923 741.695 567.971 741.373 566.639 741.373C564.82 741.373 563.502 742.075 562.686 743.479V760H556.477V727H562.686V739.289ZM591.947 760.43C588.538 760.43 585.76 759.384 583.611 757.293C581.477 755.202 580.41 752.416 580.41 748.936V748.334C580.41 745.999 580.861 743.915 581.764 742.082C582.666 740.234 583.941 738.816 585.588 737.828C587.249 736.826 589.14 736.324 591.26 736.324C594.439 736.324 596.939 737.327 598.758 739.332C600.591 741.337 601.508 744.18 601.508 747.861V750.396H586.705C586.906 751.915 587.507 753.132 588.51 754.049C589.527 754.965 590.809 755.424 592.355 755.424C594.747 755.424 596.617 754.557 597.963 752.824L601.014 756.24C600.083 757.558 598.822 758.589 597.232 759.334C595.643 760.064 593.881 760.43 591.947 760.43ZM591.238 741.352C590.007 741.352 589.004 741.767 588.23 742.598C587.471 743.428 586.984 744.617 586.77 746.164H595.406V745.67C595.378 744.295 595.005 743.235 594.289 742.49C593.573 741.731 592.556 741.352 591.238 741.352ZM640.975 749.58C640.731 752.946 639.485 755.596 637.236 757.529C635.002 759.463 632.051 760.43 628.385 760.43C624.374 760.43 621.216 759.083 618.91 756.391C616.618 753.684 615.473 749.974 615.473 745.262V743.35C615.473 740.342 616.003 737.692 617.062 735.4C618.122 733.109 619.633 731.354 621.596 730.137C623.572 728.905 625.864 728.289 628.471 728.289C632.08 728.289 634.988 729.256 637.193 731.189C639.399 733.123 640.674 735.837 641.018 739.332H634.572C634.415 737.312 633.849 735.852 632.875 734.949C631.915 734.033 630.447 733.574 628.471 733.574C626.322 733.574 624.711 734.348 623.637 735.895C622.577 737.427 622.033 739.812 622.004 743.049V745.412C622.004 748.792 622.512 751.263 623.529 752.824C624.561 754.385 626.179 755.166 628.385 755.166C630.376 755.166 631.858 754.715 632.832 753.812C633.82 752.896 634.386 751.485 634.529 749.58H640.975ZM657.861 742.576C657.016 742.462 656.271 742.404 655.627 742.404C653.278 742.404 651.738 743.199 651.008 744.789V760H644.799V736.754H650.664L650.836 739.525C652.082 737.391 653.808 736.324 656.014 736.324C656.701 736.324 657.346 736.417 657.947 736.604L657.861 742.576ZM671.139 760.43C667.73 760.43 664.951 759.384 662.803 757.293C660.669 755.202 659.602 752.416 659.602 748.936V748.334C659.602 745.999 660.053 743.915 660.955 742.082C661.857 740.234 663.132 738.816 664.779 737.828C666.441 736.826 668.331 736.324 670.451 736.324C673.631 736.324 676.13 737.327 677.949 739.332C679.783 741.337 680.699 744.18 680.699 747.861V750.396H665.896C666.097 751.915 666.699 753.132 667.701 754.049C668.718 754.965 670 755.424 671.547 755.424C673.939 755.424 675.808 754.557 677.154 752.824L680.205 756.24C679.274 757.558 678.014 758.589 676.424 759.334C674.834 760.064 673.072 760.43 671.139 760.43ZM670.43 741.352C669.198 741.352 668.195 741.767 667.422 742.598C666.663 743.428 666.176 744.617 665.961 746.164H674.598V745.67C674.569 744.295 674.197 743.235 673.48 742.49C672.764 741.731 671.747 741.352 670.43 741.352ZM697.715 760C697.428 759.441 697.221 758.747 697.092 757.916C695.588 759.592 693.633 760.43 691.227 760.43C688.949 760.43 687.059 759.771 685.555 758.453C684.065 757.135 683.32 755.474 683.32 753.469C683.32 751.005 684.23 749.115 686.049 747.797C687.882 746.479 690.525 745.813 693.977 745.799H696.834V744.467C696.834 743.393 696.555 742.533 695.996 741.889C695.452 741.244 694.585 740.922 693.396 740.922C692.351 740.922 691.527 741.173 690.926 741.674C690.339 742.175 690.045 742.863 690.045 743.736H683.836C683.836 742.39 684.251 741.144 685.082 739.998C685.913 738.852 687.087 737.957 688.605 737.312C690.124 736.654 691.828 736.324 693.719 736.324C696.583 736.324 698.854 737.048 700.529 738.494C702.219 739.926 703.064 741.946 703.064 744.553V754.629C703.079 756.835 703.387 758.503 703.988 759.635V760H697.715ZM692.58 755.682C693.497 755.682 694.342 755.481 695.115 755.08C695.889 754.665 696.462 754.113 696.834 753.426V749.43H694.514C691.406 749.43 689.751 750.504 689.551 752.652L689.529 753.018C689.529 753.791 689.801 754.428 690.346 754.93C690.89 755.431 691.635 755.682 692.58 755.682ZM715.268 731.039V736.754H719.242V741.309H715.268V752.91C715.268 753.77 715.432 754.385 715.762 754.758C716.091 755.13 716.721 755.316 717.652 755.316C718.34 755.316 718.949 755.266 719.479 755.166V759.871C718.261 760.243 717.008 760.43 715.719 760.43C711.365 760.43 709.145 758.231 709.059 753.834V741.309H705.664V736.754H709.059V731.039H715.268ZM729.254 760H723.023V736.754H729.254V760ZM722.658 730.738C722.658 729.807 722.966 729.041 723.582 728.439C724.212 727.838 725.064 727.537 726.139 727.537C727.199 727.537 728.044 727.838 728.674 728.439C729.304 729.041 729.619 729.807 729.619 730.738C729.619 731.684 729.297 732.457 728.652 733.059C728.022 733.66 727.184 733.961 726.139 733.961C725.093 733.961 724.248 733.66 723.604 733.059C722.973 732.457 722.658 731.684 722.658 730.738ZM743.09 752.416L747.408 736.754H753.896L746.055 760H740.125L732.283 736.754H738.771L743.09 752.416ZM763.199 760H756.969V736.754H763.199V760ZM756.604 730.738C756.604 729.807 756.911 729.041 757.527 728.439C758.158 727.838 759.01 727.537 760.084 727.537C761.144 727.537 761.989 727.838 762.619 728.439C763.249 729.041 763.564 729.807 763.564 730.738C763.564 731.684 763.242 732.457 762.598 733.059C761.967 733.66 761.13 733.961 760.084 733.961C759.038 733.961 758.193 733.66 757.549 733.059C756.919 732.457 756.604 731.684 756.604 730.738ZM775.768 731.039V736.754H779.742V741.309H775.768V752.91C775.768 753.77 775.932 754.385 776.262 754.758C776.591 755.13 777.221 755.316 778.152 755.316C778.84 755.316 779.449 755.266 779.979 755.166V759.871C778.761 760.243 777.508 760.43 776.219 760.43C771.865 760.43 769.645 758.231 769.559 753.834V741.309H766.164V736.754H769.559V731.039H775.768ZM791.881 751.213L796.178 736.754H802.838L793.492 763.609L792.977 764.834C791.587 767.87 789.296 769.389 786.102 769.389C785.199 769.389 784.283 769.253 783.352 768.98V764.275L784.297 764.297C785.471 764.297 786.345 764.118 786.918 763.76C787.505 763.402 787.964 762.807 788.293 761.977L789.023 760.064L780.881 736.754H787.562L791.881 751.213ZM841.209 749.58C840.965 752.946 839.719 755.596 837.471 757.529C835.236 759.463 832.286 760.43 828.619 760.43C824.609 760.43 821.451 759.083 819.145 756.391C816.853 753.684 815.707 749.974 815.707 745.262V743.35C815.707 740.342 816.237 737.692 817.297 735.4C818.357 733.109 819.868 731.354 821.83 730.137C823.807 728.905 826.098 728.289 828.705 728.289C832.314 728.289 835.222 729.256 837.428 731.189C839.633 733.123 840.908 735.837 841.252 739.332H834.807C834.649 737.312 834.083 735.852 833.109 734.949C832.15 734.033 830.682 733.574 828.705 733.574C826.557 733.574 824.945 734.348 823.871 735.895C822.811 737.427 822.267 739.812 822.238 743.049V745.412C822.238 748.792 822.747 751.263 823.764 752.824C824.795 754.385 826.413 755.166 828.619 755.166C830.61 755.166 832.092 754.715 833.066 753.812C834.055 752.896 834.62 751.485 834.764 749.58H841.209ZM858.504 760C858.217 759.441 858.01 758.747 857.881 757.916C856.377 759.592 854.422 760.43 852.016 760.43C849.738 760.43 847.848 759.771 846.344 758.453C844.854 757.135 844.109 755.474 844.109 753.469C844.109 751.005 845.019 749.115 846.838 747.797C848.671 746.479 851.314 745.813 854.766 745.799H857.623V744.467C857.623 743.393 857.344 742.533 856.785 741.889C856.241 741.244 855.374 740.922 854.186 740.922C853.14 740.922 852.316 741.173 851.715 741.674C851.128 742.175 850.834 742.863 850.834 743.736H844.625C844.625 742.39 845.04 741.144 845.871 739.998C846.702 738.852 847.876 737.957 849.395 737.312C850.913 736.654 852.617 736.324 854.508 736.324C857.372 736.324 859.643 737.048 861.318 738.494C863.008 739.926 863.854 741.946 863.854 744.553V754.629C863.868 756.835 864.176 758.503 864.777 759.635V760H858.504ZM853.369 755.682C854.286 755.682 855.131 755.481 855.904 755.08C856.678 754.665 857.251 754.113 857.623 753.426V749.43H855.303C852.195 749.43 850.54 750.504 850.34 752.652L850.318 753.018C850.318 753.791 850.59 754.428 851.135 754.93C851.679 755.431 852.424 755.682 853.369 755.682ZM874.338 736.754L874.531 739.439C876.193 737.363 878.42 736.324 881.213 736.324C883.676 736.324 885.51 737.048 886.713 738.494C887.916 739.941 888.532 742.104 888.561 744.982V760H882.352V745.133C882.352 743.815 882.065 742.863 881.492 742.275C880.919 741.674 879.967 741.373 878.635 741.373C876.887 741.373 875.577 742.118 874.703 743.607V760H868.494V736.754H874.338ZM901.988 752.416L906.307 736.754H912.795L904.953 760H899.023L891.182 736.754H897.67L901.988 752.416ZM928.672 760C928.385 759.441 928.178 758.747 928.049 757.916C926.545 759.592 924.59 760.43 922.184 760.43C919.906 760.43 918.016 759.771 916.512 758.453C915.022 757.135 914.277 755.474 914.277 753.469C914.277 751.005 915.187 749.115 917.006 747.797C918.839 746.479 921.482 745.813 924.934 745.799H927.791V744.467C927.791 743.393 927.512 742.533 926.953 741.889C926.409 741.244 925.542 740.922 924.354 740.922C923.308 740.922 922.484 741.173 921.883 741.674C921.296 742.175 921.002 742.863 921.002 743.736H914.793C914.793 742.39 915.208 741.144 916.039 739.998C916.87 738.852 918.044 737.957 919.562 737.312C921.081 736.654 922.785 736.324 924.676 736.324C927.54 736.324 929.811 737.048 931.486 738.494C933.176 739.926 934.021 741.946 934.021 744.553V754.629C934.036 756.835 934.344 758.503 934.945 759.635V760H928.672ZM923.537 755.682C924.454 755.682 925.299 755.481 926.072 755.08C926.846 754.665 927.419 754.113 927.791 753.426V749.43H925.471C922.363 749.43 920.708 750.504 920.508 752.652L920.486 753.018C920.486 753.791 920.758 754.428 921.303 754.93C921.847 755.431 922.592 755.682 923.537 755.682ZM951.381 753.576C951.381 752.817 951.001 752.223 950.242 751.793C949.497 751.349 948.294 750.955 946.633 750.611C941.104 749.451 938.34 747.102 938.34 743.564C938.34 741.502 939.192 739.783 940.896 738.408C942.615 737.019 944.857 736.324 947.621 736.324C950.572 736.324 952.928 737.019 954.689 738.408C956.465 739.798 957.354 741.602 957.354 743.822H951.145C951.145 742.934 950.858 742.204 950.285 741.631C949.712 741.044 948.817 740.75 947.6 740.75C946.554 740.75 945.745 740.986 945.172 741.459C944.599 741.932 944.312 742.533 944.312 743.264C944.312 743.951 944.635 744.51 945.279 744.939C945.938 745.355 947.041 745.72 948.588 746.035C950.135 746.336 951.438 746.68 952.498 747.066C955.778 748.27 957.418 750.354 957.418 753.318C957.418 755.438 956.508 757.157 954.689 758.475C952.87 759.778 950.521 760.43 947.643 760.43C945.695 760.43 943.962 760.086 942.443 759.398C940.939 758.697 939.758 757.744 938.898 756.541C938.039 755.324 937.609 754.013 937.609 752.609H943.496C943.553 753.712 943.962 754.557 944.721 755.145C945.48 755.732 946.497 756.025 947.771 756.025C948.96 756.025 949.855 755.803 950.457 755.359C951.073 754.901 951.381 754.307 951.381 753.576Z" fill="black"/>
<path d="M527 790H958" stroke="black" stroke-width="10"/>
</svg>
