<svg xmlns="http://www.w3.org/2000/svg" viewBox="0 0 453.23 90.88"><defs><style>.cls-1{fill:#fff;}.cls-1,.cls-2,.cls-3{stroke:#000;}.cls-1,.cls-3{stroke-linejoin:round;stroke-width:6.34px;}.cls-2{fill:#444041;stroke-miterlimit:10;stroke-width:4.76px;}.cls-3{fill:#edff6a;}.cls-4{font-size:36px;font-family:Roboto-Bold, Roboto;font-weight:700;}.cls-5{letter-spacing:0.02em;}.cls-6{letter-spacing:-0.02em;}.cls-10,.cls-7,.cls-8,.cls-9{font-family:Sentinel-MediumItalic, Sentinel;font-weight:500;font-style:italic;}.cls-7{letter-spacing:0.02em;}.cls-8{letter-spacing:0em;}.cls-9{letter-spacing:0.01em;}.cls-10{letter-spacing:0.02em;}</style></defs><title>Gym Logo</title><g id="Layer_2" data-name="Layer 2"><g id="Layer_1-2" data-name="Layer 1"><path class="cls-1" d="M101.36,37.12c-1-5.54-5.52-7.17-8.84-8.28,0,0,2.87-6.71-1.65-12.14C85.35,10.07,76,16.14,76,16.14S78.17,7.31,69.33,4s-14.9,4.41-14.9,4.41S48.35.69,39.52,4,32.9,16.14,32.9,16.14,23.51,10.07,18,16.7c-4.53,5.43-1.66,12.14-1.66,12.14C13,30,8.48,31.58,7.5,37.12c-1.66,9.39,3.86,14.36,3.86,14.36H97.49S103,46.51,101.36,37.12Z"/><line class="cls-2" x1="54.43" y1="6.07" x2="54.43" y2="48.9"/><path class="cls-3" d="M101.52,64.86H6.34c-1.75,0-3.17-2-3.17-4.38V50.21c0-2.42,1.42-4.38,3.17-4.38h95.18c1.75,0,3.17,2,3.17,4.38V60.48C104.69,62.9,103.27,64.86,101.52,64.86Z"/><circle cx="28.72" cy="82.16" r="8.72"/><circle cx="79.14" cy="82.16" r="8.72"/><text class="cls-4" transform="translate(152.94 55.34)"><tspan class="cls-5">t</tspan><tspan class="cls-6" x="12.88" y="0">h</tspan><tspan class="cls-5" x="32.31" y="0">e </tspan><tspan class="cls-7" x="62.17" y="0">c</tspan><tspan class="cls-8" x="79.16" y="0">r</tspan><tspan class="cls-9" x="95.11" y="0">e</tspan><tspan class="cls-7" x="111.82" y="0">ativi</tspan><tspan class="cls-10" x="189.57" y="0">t</tspan><tspan class="cls-7" x="203.54" y="0">y </tspan><tspan x="230.51" y="0">gym</tspan></text></g></g></svg>