<svg width="1480" height="900" viewBox="0 0 1480 900" fill="none" xmlns="http://www.w3.org/2000/svg">
<rect width="1480" height="900" fill="#FDFFEB"/>
<rect width="1480" height="900" fill="#FF20CE" fill-opacity="0.3"/>
<g clip-path="url(#clip0)">
<path d="M441.134 430.585C438.747 417.364 427.961 413.474 420.038 410.826C420.038 410.826 426.887 394.812 416.1 381.854C402.927 366.032 380.614 380.518 380.614 380.518C380.614 380.518 385.792 359.445 364.696 351.546C343.6 343.647 329.138 362.07 329.138 362.07C329.138 362.07 314.629 343.647 293.556 351.546C272.484 359.445 277.758 380.518 277.758 380.518C277.758 380.518 255.349 366.032 242.2 381.854C231.389 394.812 238.238 410.826 238.238 410.826C230.268 413.594 219.481 417.364 217.142 430.585C213.181 452.994 226.354 464.855 226.354 464.855H431.898C431.898 464.855 445.048 452.994 441.134 430.585Z" fill="white" stroke="black" stroke-width="15.1301" stroke-linejoin="round"/>
<path d="M329.138 356.486V458.698" stroke="black" stroke-width="11.3595" stroke-miterlimit="10"/>
<path d="M441.516 496.785H214.375C210.198 496.785 206.81 492.012 206.81 486.332V461.824C206.81 456.049 210.198 451.371 214.375 451.371H441.516C445.693 451.371 449.081 456.144 449.081 461.824V486.332C449.081 492.108 445.693 496.785 441.516 496.785Z" fill="#EDFF6A" stroke="black" stroke-width="15.1301" stroke-linejoin="round"/>
<path d="M267.783 558.881C279.276 558.881 288.593 549.564 288.593 538.072C288.593 526.579 279.276 517.262 267.783 517.262C256.29 517.262 246.974 526.579 246.974 538.072C246.974 549.564 256.29 558.881 267.783 558.881Z" fill="black"/>
<path d="M388.108 558.881C399.601 558.881 408.917 549.564 408.917 538.072C408.917 526.579 399.601 517.262 388.108 517.262C376.615 517.262 367.298 526.579 367.298 538.072C367.298 549.564 376.615 558.881 388.108 558.881Z" fill="black"/>
<path d="M583.398 411.607V422.766H591.159V431.659H583.398V454.312C583.398 455.99 583.72 457.192 584.363 457.919C585.006 458.646 586.237 459.01 588.055 459.01C589.397 459.01 590.586 458.912 591.62 458.716V467.903C589.243 468.63 586.796 468.994 584.279 468.994C575.778 468.994 571.443 464.701 571.275 456.115V431.659H564.647V422.766H571.275V411.607H583.398ZM609.742 427.716C612.959 423.856 617 421.927 621.866 421.927C631.71 421.927 636.702 427.646 636.842 439.084V468.155H624.718V439.42C624.718 436.819 624.159 434.903 623.04 433.673C621.922 432.414 620.062 431.785 617.461 431.785C613.909 431.785 611.336 433.155 609.742 435.896V468.155H597.619V403.721H609.742V427.716ZM666.877 468.994C660.221 468.994 654.796 466.952 650.601 462.869C646.434 458.786 644.351 453.347 644.351 446.551V445.376C644.351 440.818 645.231 436.749 646.993 433.169C648.755 429.562 651.244 426.793 654.46 424.863C657.704 422.906 661.396 421.927 665.535 421.927C671.743 421.927 676.623 423.884 680.175 427.8C683.755 431.715 685.545 437.266 685.545 444.453V449.403H656.642C657.033 452.368 658.208 454.745 660.165 456.535C662.151 458.325 664.654 459.22 667.674 459.22C672.345 459.22 675.994 457.528 678.623 454.144L684.58 460.814C682.762 463.387 680.301 465.4 677.197 466.854C674.093 468.281 670.653 468.994 666.877 468.994ZM665.493 431.743C663.088 431.743 661.13 432.554 659.62 434.176C658.138 435.798 657.187 438.119 656.767 441.139H673.631V440.175C673.575 437.49 672.848 435.42 671.45 433.966C670.051 432.484 668.066 431.743 665.493 431.743ZM732.737 459.22C734.975 459.22 736.793 458.604 738.191 457.374C739.589 456.143 740.316 454.507 740.372 452.466H751.74C751.713 455.542 750.874 458.367 749.224 460.94C747.574 463.484 745.308 465.47 742.428 466.896C739.575 468.295 736.415 468.994 732.947 468.994C726.459 468.994 721.341 466.938 717.594 462.827C713.846 458.688 711.973 452.983 711.973 445.712V444.915C711.973 437.923 713.832 432.344 717.552 428.177C721.271 424.01 726.375 421.927 732.863 421.927C738.54 421.927 743.085 423.549 746.497 426.793C749.937 430.009 751.685 434.302 751.74 439.671H740.372C740.316 437.322 739.589 435.42 738.191 433.966C736.793 432.484 734.947 431.743 732.654 431.743C729.829 431.743 727.69 432.778 726.235 434.847C724.809 436.889 724.096 440.217 724.096 444.831V446.09C724.096 450.76 724.809 454.116 726.235 456.157C727.662 458.199 729.829 459.22 732.737 459.22ZM784.167 434.134C782.517 433.91 781.063 433.798 779.804 433.798C775.218 433.798 772.212 435.351 770.785 438.455V468.155H758.662V422.766H770.114L770.45 428.177C772.883 424.01 776.253 421.927 780.56 421.927C781.902 421.927 783.16 422.109 784.335 422.472L784.167 434.134ZM810.092 468.994C803.436 468.994 798.01 466.952 793.816 462.869C789.649 458.786 787.565 453.347 787.565 446.551V445.376C787.565 440.818 788.446 436.749 790.208 433.169C791.97 429.562 794.459 426.793 797.675 424.863C800.919 422.906 804.61 421.927 808.749 421.927C814.958 421.927 819.838 423.884 823.39 427.8C826.969 431.715 828.759 437.266 828.759 444.453V449.403H799.856C800.248 452.368 801.422 454.745 803.38 456.535C805.366 458.325 807.869 459.22 810.889 459.22C815.559 459.22 819.209 457.528 821.838 454.144L827.794 460.814C825.977 463.387 823.516 465.4 820.411 466.854C817.307 468.281 813.867 468.994 810.092 468.994ZM808.708 431.743C806.302 431.743 804.345 432.554 802.835 434.176C801.352 435.798 800.402 438.119 799.982 441.139H816.846V440.175C816.79 437.49 816.063 435.42 814.664 433.966C813.266 432.484 811.28 431.743 808.708 431.743ZM861.983 468.155C861.424 467.064 861.018 465.708 860.766 464.086C857.83 467.358 854.013 468.994 849.314 468.994C844.868 468.994 841.176 467.707 838.24 465.134C835.331 462.562 833.877 459.317 833.877 455.402C833.877 450.592 835.653 446.901 839.205 444.328C842.784 441.755 847.944 440.454 854.684 440.426H860.263V437.826C860.263 435.728 859.718 434.05 858.627 432.792C857.564 431.533 855.872 430.904 853.551 430.904C851.51 430.904 849.902 431.393 848.727 432.372C847.58 433.351 847.007 434.693 847.007 436.399H834.884C834.884 433.77 835.695 431.337 837.317 429.1C838.939 426.863 841.232 425.115 844.197 423.856C847.161 422.57 850.489 421.927 854.18 421.927C859.774 421.927 864.206 423.339 867.478 426.164C870.778 428.96 872.428 432.903 872.428 437.993V457.667C872.456 461.974 873.058 465.232 874.232 467.442V468.155H861.983ZM851.957 459.723C853.747 459.723 855.397 459.331 856.907 458.548C858.417 457.737 859.536 456.661 860.263 455.318V447.516H855.733C849.664 447.516 846.434 449.613 846.042 453.808L846 454.521C846 456.031 846.532 457.276 847.594 458.255C848.657 459.234 850.111 459.723 851.957 459.723ZM896.256 411.607V422.766H904.016V431.659H896.256V454.312C896.256 455.99 896.577 457.192 897.22 457.919C897.864 458.646 899.094 459.01 900.912 459.01C902.254 459.01 903.443 458.912 904.478 458.716V467.903C902.1 468.63 899.653 468.994 897.136 468.994C888.635 468.994 884.3 464.701 884.132 456.115V431.659H877.504V422.766H884.132V411.607H896.256ZM923.564 468.155H911.399V422.766H923.564V468.155ZM910.686 411.02C910.686 409.202 911.287 407.706 912.49 406.531C913.72 405.357 915.384 404.77 917.482 404.77C919.551 404.77 921.201 405.357 922.432 406.531C923.662 407.706 924.278 409.202 924.278 411.02C924.278 412.866 923.648 414.376 922.39 415.55C921.159 416.725 919.523 417.312 917.482 417.312C915.44 417.312 913.79 416.725 912.532 415.55C911.301 414.376 910.686 412.866 910.686 411.02ZM950.58 453.347L959.012 422.766H971.68L956.369 468.155H944.791L929.479 422.766H942.148L950.58 453.347ZM989.844 468.155H977.679V422.766H989.844V468.155ZM976.966 411.02C976.966 409.202 977.567 407.706 978.77 406.531C980 405.357 981.664 404.77 983.762 404.77C985.831 404.77 987.481 405.357 988.712 406.531C989.942 407.706 990.557 409.202 990.557 411.02C990.557 412.866 989.928 414.376 988.67 415.55C987.439 416.725 985.803 417.312 983.762 417.312C981.72 417.312 980.07 416.725 978.812 415.55C977.581 414.376 976.966 412.866 976.966 411.02ZM1014.38 411.607V422.766H1022.15V431.659H1014.38V454.312C1014.38 455.99 1014.71 457.192 1015.35 457.919C1015.99 458.646 1017.22 459.01 1019.04 459.01C1020.38 459.01 1021.57 458.912 1022.61 458.716V467.903C1020.23 468.63 1017.78 468.994 1015.27 468.994C1006.76 468.994 1002.43 464.701 1002.26 456.115V431.659H995.633V422.766H1002.26V411.607H1014.38ZM1045.85 450.998L1054.24 422.766H1067.24L1048.99 475.202L1047.99 477.593C1045.27 483.522 1040.8 486.487 1034.56 486.487C1032.8 486.487 1031.01 486.221 1029.19 485.69V476.503L1031.04 476.545C1033.33 476.545 1035.04 476.195 1036.16 475.496C1037.3 474.797 1038.2 473.636 1038.84 472.014L1040.27 468.281L1024.37 422.766H1037.41L1045.85 450.998ZM1091.65 445.125C1091.65 438.161 1093.3 432.554 1096.6 428.303C1099.93 424.052 1104.41 421.927 1110.03 421.927C1115.01 421.927 1118.88 423.633 1121.65 427.045L1122.15 422.766H1133.14V466.645C1133.14 470.616 1132.23 474.07 1130.42 477.006C1128.63 479.943 1126.1 482.18 1122.82 483.718C1119.55 485.256 1115.72 486.025 1111.33 486.025C1108 486.025 1104.76 485.354 1101.6 484.012C1098.44 482.697 1096.05 480.991 1094.42 478.894L1099.79 471.511C1102.81 474.895 1106.48 476.587 1110.78 476.587C1114 476.587 1116.5 475.72 1118.29 473.986C1120.08 472.28 1120.98 469.847 1120.98 466.687V464.254C1118.18 467.414 1114.5 468.994 1109.94 468.994C1104.49 468.994 1100.07 466.868 1096.69 462.617C1093.33 458.339 1091.65 452.676 1091.65 445.628V445.125ZM1103.78 446.006C1103.78 450.117 1104.6 453.347 1106.25 455.696C1107.9 458.017 1110.17 459.178 1113.05 459.178C1116.74 459.178 1119.38 457.793 1120.98 455.025V435.938C1119.36 433.169 1116.74 431.785 1113.13 431.785C1110.22 431.785 1107.93 432.973 1106.25 435.351C1104.6 437.728 1103.78 441.279 1103.78 446.006ZM1159.44 450.998L1167.83 422.766H1180.84L1162.59 475.202L1161.58 477.593C1158.87 483.522 1154.4 486.487 1148.16 486.487C1146.4 486.487 1144.61 486.221 1142.79 485.69V476.503L1144.64 476.545C1146.93 476.545 1148.64 476.195 1149.75 475.496C1150.9 474.797 1151.8 473.636 1152.44 472.014L1153.87 468.281L1137.97 422.766H1151.01L1159.44 450.998ZM1196.99 422.766L1197.37 427.842C1200.58 423.898 1204.93 421.927 1210.41 421.927C1216.26 421.927 1220.27 424.234 1222.45 428.848C1225.64 424.234 1230.19 421.927 1236.09 421.927C1241.01 421.927 1244.67 423.367 1247.08 426.248C1249.48 429.1 1250.68 433.407 1250.68 439.168V468.155H1238.52V439.21C1238.52 436.637 1238.02 434.763 1237.01 433.589C1236 432.386 1234.23 431.785 1231.68 431.785C1228.05 431.785 1225.53 433.519 1224.13 436.987L1224.17 468.155H1212.05V439.252C1212.05 436.623 1211.53 434.721 1210.5 433.547C1209.46 432.372 1207.7 431.785 1205.21 431.785C1201.77 431.785 1199.28 433.211 1197.74 436.064V468.155H1185.62V422.766H1196.99Z" fill="black"/>
</g>
<defs>
<clipPath id="clip0">
<rect width="1081.61" height="216.88" fill="white" transform="translate(199.245 342)"/>
</clipPath>
</defs>
</svg>
